Mada-Light.ufo
<glyph name="arComma" format="2">
  <advance width="219"/>
  <unicode hex="060C"/>
  <outline>
    <contour>
      <point x="157" y="222" type="line"/>
      <point x="97" y="190"/>
      <point x="54" y="132"/>
      <point x="54" y="59" type="curve" smooth="yes"/>
      <point x="54" y="15"/>
      <point x="75" y="-12"/>
      <point x="105" y="-12" type="curve" smooth="yes"/>
      <point x="127" y="-12"/>
      <point x="148" y="3"/>
      <point x="148" y="30" type="curve" smooth="yes"/>
      <point x="148" y="57"/>
      <point x="129" y="72"/>
      <point x="106" y="72" type="curve" smooth="yes"/>
      <point x="93" y="72"/>
      <point x="80" y="69"/>
      <point x="71" y="55" type="curve"/>
      <point x="107" y="8" type="line"/>
      <point x="94" y="68" type="line"/>
      <point x="94" y="125"/>
      <point x="125" y="168"/>
      <point x="171" y="192" type="curve"/>
    </contour>
  </outline>
</glyph>
<glyph name="arSemicolon" format="2">
  <advance width="219"/>
  <unicode hex="061B"/>
  <outline>
    <contour>
      <point x="109" y="79" type="curve" smooth="yes"/>
      <point x="87" y="79"/>
      <point x="67" y="62"/>
      <point x="67" y="34" type="curve" smooth="yes"/>
      <point x="67" y="5"/>
      <point x="87" y="-12"/>
      <point x="109" y="-12" type="curve" smooth="yes"/>
      <point x="131" y="-12"/>
      <point x="152" y="5"/>
      <point x="152" y="34" type="curve" smooth="yes"/>
      <point x="152" y="62"/>
      <point x="131" y="79"/>
    </contour>
    <contour>
      <point x="157" y="604" type="line"/>
      <point x="97" y="572"/>
      <point x="54" y="514"/>
      <point x="54" y="441" type="curve" smooth="yes"/>
      <point x="54" y="397"/>
      <point x="75" y="370"/>
      <point x="105" y="370" type="curve" smooth="yes"/>
      <point x="127" y="370"/>
      <point x="148" y="385"/>
      <point x="148" y="412" type="curve" smooth="yes"/>
      <point x="148" y="439"/>
      <point x="129" y="454"/>
      <point x="106" y="454" type="curve" smooth="yes"/>
      <point x="93" y="454"/>
      <point x="80" y="451"/>
      <point x="71" y="437" type="curve"/>
      <point x="107" y="390" type="line"/>
      <point x="94" y="450" type="line"/>
      <point x="94" y="507"/>
      <point x="125" y="550"/>
      <point x="171" y="574" type="curve"/>
    </contour>
  </outline>
</glyph>
<glyph name="arQuestion" format="2">
  <advance width="402"/>
  <unicode hex="061F"/>
  <outline>
    <contour>
      <point x="239" y="179" type="curve"/>
      <point x="199" y="179" type="line"/>
      <point x="218" y="332"/>
      <point x="50" y="393"/>
      <point x="50" y="529" type="curve" smooth="yes"/>
      <point x="50" y="616"/>
      <point x="108" y="682"/>
      <point x="205" y="682" type="curve" smooth="yes"/>
      <point x="274" y="682"/>
      <point x="326" y="648"/>
      <point x="365" y="604" type="curve"/>
      <point x="338" y="579" type="line"/>
      <point x="305" y="620"/>
      <point x="258" y="643"/>
      <point x="209" y="643" type="curve" smooth="yes"/>
      <point x="131" y="643"/>
      <point x="96" y="588"/>
      <point x="96" y="526" type="curve" smooth="yes"/>
      <point x="96" y="403"/>
      <point x="261" y="345"/>
    </contour>
    <contour>
      <point x="216" y="-12" type="curve" smooth="yes"/>
      <point x="194" y="-12"/>
      <point x="173" y="5"/>
      <point x="173" y="33" type="curve" smooth="yes"/>
      <point x="173" y="62"/>
      <point x="194" y="79"/>
      <point x="216" y="79" type="curve" smooth="yes"/>
      <point x="238" y="79"/>
      <point x="258" y="62"/>
      <point x="258" y="33" type="curve" smooth="yes"/>
      <point x="258" y="5"/>
      <point x="238" y="-12"/>
    </contour>
  </outline>
</glyph>
<glyph name="uni0621" format="2">
  <advance width="272"/>
  <unicode hex="0621"/>
  <outline>
    <contour>
      <point x="232.0" y="143.0" type="line"/>
      <point x="232.0" y="111.0" type="line"/>
      <point x="138.7568359375" y="111.0" type="line"/>
      <point x="172.54296875" y="39.6748046875" type="line" smooth="yes"/>
      <point x="175.3125" y="33.4423828125"/>
      <point x="182.6669921875" y="21.3330078125"/>
      <point x="174.3330078125" y="9.3173828125" type="curve" smooth="yes"/>
      <point x="168.9580078125" y="1.56640625"/>
      <point x="157.2021484375" y="0.0"/>
      <point x="151.0" y="0.0" type="curve" smooth="yes"/>
      <point x="40.0" y="0.0" type="line"/>
      <point x="40.0" y="32.0" type="line"/>
      <point x="140.76953125" y="32.0" type="line"/>
      <point x="107.45703125" y="102.3251953125" type="line" smooth="yes"/>
      <point x="107.1328125" y="103.0556640625"/>
      <point x="96.37109375" y="122.4501953125"/>
      <point x="107.5634765625" y="134.5" type="curve" smooth="yes"/>
      <point x="112.6767578125" y="140.005859375"/>
      <point x="122.5419921875" y="143.0"/>
      <point x="133.0" y="143.0" type="curve" smooth="yes"/>
    </contour>
    <component base="arTah.above" xOffset="156.0" yOffset="243.0" identifier="mark_arTah.above"/>
    <component base="ar3Dot.above" xOffset="156.0" yOffset="243.0" identifier="mark_ar3Dot.above"/>
    <component base="ar1Dot.above" xOffset="156.0" yOffset="243.0" identifier="mark_ar1Dot.above"/>
    <component base="uni0651" xOffset="156.0" yOffset="281.0" identifier="mark_uni0651"/>
    <component base="uni064E" xOffset="156.0" yOffset="263.0" identifier="mark_uni064E"/>
    <component base="uni064B" xOffset="156.0" yOffset="281.0" identifier="mark_uni064B"/>
    <component base="ar3IDot.below" xOffset="116.0" yOffset="-80.0" identifier="mark_ar3IDot.below"/>
    <component base="ar2Dot.below" xOffset="116.0" yOffset="-80.0" identifier="mark_ar2Dot.below"/>
    <component base="uni0650" xOffset="116.0" yOffset="-100.0" identifier="mark_uni0650"/>
    <component base="uni0656" xOffset="116.0" yOffset="-80.0" identifier="mark_uni0656"/>
    <component base="uni064D" xOffset="116.0" yOffset="-109.0" identifier="mark_uni064D"/>
    <component base="ar1Dot.below" xOffset="116.0" yOffset="-80.0" identifier="mark_ar1Dot.below"/>
    <component base="ar3Dot.below" xOffset="116.0" yOffset="-80.0" identifier="mark_ar3Dot.below"/>
    <component base="uni0670" xOffset="156.0" yOffset="243.0" identifier="mark_uni0670"/>
    <component base="uni064C" xOffset="155.0" yOffset="275.0" identifier="mark_uni064C"/>
    <component base="uni064F" xOffset="150.0" yOffset="275.0" identifier="mark_uni064F"/>
    <component base="uni0652" xOffset="156.0" yOffset="280.0" identifier="mark_uni0652"/>
    <component base="ar2Dot.above" xOffset="156.0" yOffset="243.0" identifier="mark_ar2Dot.above"/>
    <component base="ar3IDot.above" xOffset="156.0" yOffset="243.0" identifier="mark_ar3IDot.above"/>
  </outline>
</glyph>
<glyph name="uni0640" format="2">
  <advance width="240"/>
  <unicode hex="0640"/>
  <outline>
    <contour>
      <point x="245.0" y="0.0" type="line"/>
      <point x="-5.0" y="0.0" type="line"/>
      <point x="-5.0" y="32.0" type="line"/>
      <point x="245.0" y="32.0" type="line"/>
    </contour>
  </outline>
</glyph>
<glyph name="uni064F" format="2">
  <unicode hex="064F"/>
  <anchor x="0" y="0" name="_markAbove"/>
  <anchor x="0" y="0" name="_markAboveDot"/>
  <outline>
    <contour>
      <point x="-25.0" y="39.0" type="line"/>
      <point x="-40.0" y="80.0" type="line" smooth="yes"/>
      <point x="-50.0" y="110.0"/>
      <point x="-35.0" y="142.0"/>
      <point x="-6.0" y="151.0" type="curve" smooth="yes"/>
      <point x="42.0" y="164.0"/>
      <point x="83.0" y="134.0"/>
      <point x="95.0" y="101.0" type="curve" smooth="yes"/>
      <point x="104.0" y="77.0"/>
      <point x="96.0" y="48.0"/>
      <point x="65.0" y="37.0" type="curve" smooth="yes"/>
      <point x="-102.0" y="-23.0" type="line" smooth="yes"/>
      <point x="-110.0" y="-26.0"/>
      <point x="-120.0" y="-22.0"/>
      <point x="-123.0" y="-14.0" type="curve" smooth="yes"/>
      <point x="-126.0" y="-6.0"/>
      <point x="-121.0" y="4.0"/>
      <point x="-113.0" y="7.0" type="curve" smooth="yes"/>
    </contour>
    <contour>
      <point x="5.0" y="50.0" type="line"/>
      <point x="54.0" y="67.0" type="line" smooth="yes"/>
      <point x="67.0" y="72.0"/>
      <point x="69.0" y="79.0"/>
      <point x="65.0" y="90.0" type="curve" smooth="yes"/>
      <point x="58.0" y="108.0"/>
      <point x="33.0" y="128.0"/>
      <point x="2.0" y="120.0" type="curve"/>
      <point x="-7.0" y="117.0"/>
      <point x="-15.0" y="105.0"/>
      <point x="-10.0" y="91.0" type="curve" smooth="yes"/>
    </contour>
  </outline>
</glyph>
<glyph name="uni0651" format="2">
  <unicode hex="0651"/>
  <outline>
    <contour>
      <point x="-114.0" y="109.0" type="line" smooth="yes"/>
      <point x="-114.0" y="118.0"/>
      <point x="-107.0" y="125.0"/>
      <point x="-98.0" y="125.0" type="curve" smooth="yes"/>
      <point x="-89.0" y="125.0"/>
      <point x="-82.0" y="118.0"/>
      <point x="-82.0" y="109.0" type="curve" smooth="yes"/>
      <point x="-82.0" y="2.0" type="line"/>
      <point x="-71.0" y="8.0"/>
      <point x="-59.0" y="1.0"/>
      <point x="-57.0" y="-7.0" type="curve" smooth="yes"/>
      <point x="-55.0" y="-15.0"/>
      <point x="-59.02672101251824" y="-24.063608221691993"/>
      <point x="-67.02672101251824" y="-26.063608221691993" type="curve" smooth="yes"/>
      <point x="-79.02672101251824" y="-29.063608221691993"/>
      <point x="-92.0" y="-29.0"/>
      <point x="-101.0" y="-22.0" type="curve" smooth="yes"/>
      <point x="-113.0" y="-13.0"/>
      <point x="-114.0" y="2.0"/>
      <point x="-114.0" y="10.0" type="curve" smooth="yes"/>
    </contour>
    <contour>
      <point x="-16.0" y="128.0" type="line" smooth="yes"/>
      <point x="-16.0" y="137.0"/>
      <point x="-9.0" y="144.0"/>
      <point x="-0.0" y="144.0" type="curve" smooth="yes"/>
      <point x="9.0" y="144.0"/>
      <point x="16.0" y="137.0"/>
      <point x="16.0" y="128.0" type="curve" smooth="yes"/>
      <point x="16.0" y="29.0" type="line" smooth="yes"/>
      <point x="16.0" y="9.0"/>
      <point x="1.0" y="-2.0"/>
      <point x="-16.0" y="-8.0" type="curve" smooth="yes"/>
      <point x="-67.0" y="-26.0" type="line" smooth="yes"/>
      <point x="-75.0" y="-29.0"/>
      <point x="-84.0" y="-24.0"/>
      <point x="-87.0" y="-16.0" type="curve" smooth="yes"/>
      <point x="-90.0" y="-8.0"/>
      <point x="-84.9651409706474" y="1.2428358178528236"/>
      <point x="-77.0" y="4.0" type="curve" smooth="yes"/>
      <point x="-16.07770673826758" y="25.113022517301488" type="line"/>
    </contour>
    <contour>
      <point x="84.0" y="164.0" type="line" smooth="yes"/>
      <point x="84.0" y="173.0"/>
      <point x="91.0" y="180.0"/>
      <point x="100.0" y="180.0" type="curve" smooth="yes"/>
      <point x="109.0" y="180.0"/>
      <point x="116.0" y="173.0"/>
      <point x="116.0" y="164.0" type="curve" smooth="yes"/>
      <point x="116.0" y="65.0" type="line" smooth="yes"/>
      <point x="116.0" y="45.0"/>
      <point x="100.0" y="33.0"/>
      <point x="86.0" y="28.0" type="curve" smooth="yes"/>
      <point x="47.0" y="14.0" type="line" smooth="yes"/>
      <point x="39.0" y="11.0"/>
      <point x="29.0" y="16.0"/>
      <point x="26.0" y="24.0" type="curve" smooth="yes"/>
      <point x="23.0" y="32.0"/>
      <point x="28.0" y="42.0"/>
      <point x="36.0" y="45.0" type="curve" smooth="yes"/>
      <point x="84.06740169066438" y="61.39354348137863" type="line"/>
    </contour>
    <component base="uni0670" yOffset="170.0" identifier="mark_uni0670"/>
    <component base="uni064E" yOffset="191.0" identifier="mark_uni064E"/>
    <component base="uni064B" yOffset="158.0" identifier="mark_uni064B"/>
    <component base="uni064C" yOffset="188.0" identifier="mark_uni064C"/>
    <component base="uni064F" xOffset="-10.0" yOffset="168.0" identifier="mark_uni064F"/>
    <component base="uni0652" xOffset="-10.0" yOffset="186.0" identifier="mark_uni0652"/>
  </outline>
</glyph>
<glyph name="uni0652" format="2">
  <unicode hex="0652"/>
  <anchor x="0" y="0" name="_markAbove"/>
  <anchor x="0" y="0" name="_markAboveDot"/>
  <outline>
    <contour>
      <point x="-98.0" y="74.0" type="curve" smooth="yes"/>
      <point x="-98.0" y="128.0"/>
      <point x="-54.0" y="172.0"/>
      <point x="0.0" y="172.0" type="curve" smooth="yes"/>
      <point x="54.0" y="172.0"/>
      <point x="98.0" y="128.0"/>
      <point x="98.0" y="74.0" type="curve" smooth="yes"/>
      <point x="98.0" y="20.0"/>
      <point x="54.0" y="-25.0"/>
      <point x="0.0" y="-25.0" type="curve" smooth="yes"/>
      <point x="-54.0" y="-25.0"/>
      <point x="-98.0" y="20.0"/>
    </contour>
    <contour>
      <point x="-66.0" y="74.0" type="curve" smooth="yes"/>
      <point x="-66.0" y="37.0"/>
      <point x="-37.0" y="7.0"/>
      <point x="0.0" y="7.0" type="curve" smooth="yes"/>
      <point x="37.0" y="7.0"/>
      <point x="66.0" y="37.0"/>
      <point x="66.0" y="74.0" type="curve" smooth="yes"/>
      <point x="66.0" y="111.0"/>
      <point x="37.0" y="140.0"/>
      <point x="0.0" y="140.0" type="curve" smooth="yes"/>
      <point x="-37.0" y="140.0"/>
      <point x="-66.0" y="111.0"/>
    </contour>
  </outline>
</glyph>
<glyph name="uni0658" format="2">
  <unicode hex="0658"/>
  <anchor x="0" y="0" name="_markAbove"/>
  <anchor x="0" y="0" name="_markAboveDot"/>
  <outline>
    <contour>
      <point x="-98.0" y="74.0" type="curve"/>
      <point x="-98.0" y="106.0" type="line"/>
      <point x="-66.0" y="106.0" type="line"/>
      <point x="-66.0" y="74.0" type="line"/>
      <point x="-66.0" y="37.0"/>
      <point x="-37.0" y="7.0"/>
      <point x="0.0" y="7.0" type="curve" smooth="yes"/>
      <point x="37.0" y="7.0"/>
      <point x="66.0" y="37.0"/>
      <point x="66.0" y="74.0" type="curve"/>
      <point x="98.0" y="74.0" type="line"/>
      <point x="98.0" y="20.0"/>
      <point x="54.0" y="-25.0"/>
      <point x="0.0" y="-25.0" type="curve" smooth="yes"/>
      <point x="-54.0" y="-25.0"/>
      <point x="-98.0" y="20.0"/>
    </contour>
  </outline>
</glyph>
<glyph name="uni065A" format="2">
  <unicode hex="065A"/>
  <anchor x="0" y="-1" name="_dotAbove"/>
  <anchor x="0" y="237.0" name="markAbove"/>
  <outline>
    <contour>
      <point x="-21" y="0" type="line"/>
      <point x="21" y="0" type="line"/>
      <point x="138" y="144" type="line"/>
      <point x="116" y="164" type="line"/>
      <point x="2" y="39" type="line"/>
      <point x="-2" y="39" type="line"/>
      <point x="-116" y="164" type="line"/>
      <point x="-138" y="144" type="line"/>
    </contour>
  </outline>
</glyph>
<glyph name="uni0660" format="2">
  <advance width="250"/>
  <unicode hex="0660"/>
  <outline>
    <contour>
      <point x="90.0" y="329.0" type="curve" smooth="yes"/>
      <point x="90.0" y="348.3203125"/>
      <point x="105.6796875" y="364.0"/>
      <point x="125.0" y="364.0" type="curve" smooth="yes"/>
      <point x="144.3203125" y="364.0"/>
      <point x="160.0" y="348.3203125"/>
      <point x="160.0" y="329.0" type="curve" smooth="yes"/>
      <point x="160.0" y="309.6796875"/>
      <point x="144.3203125" y="294.0"/>
      <point x="125.0" y="294.0" type="curve" smooth="yes"/>
      <point x="105.6796875" y="294.0"/>
      <point x="90.0" y="309.6796875"/>
    </contour>
  </outline>
</glyph>
<glyph name="uni0662" format="2">
  <advance width="302"/>
  <unicode hex="0662"/>
  <outline>
    <contour>
      <point x="272.0" y="624.0" type="line"/>
      <point x="272.0" y="592.0" type="line"/>
      <point x="98.0" y="592.0" type="line" smooth="yes"/>
      <point x="78.048828125" y="592.0"/>
      <point x="62.0" y="576.6904296875"/>
      <point x="62.0" y="554.0" type="curve" smooth="yes"/>
      <point x="62.0" y="0.0" type="line"/>
      <point x="30.0" y="0.0" type="line"/>
      <point x="30.0" y="554.0" type="line" smooth="yes"/>
      <point x="30.0" y="593.3095703125"/>
      <point x="59.951171875" y="624.0"/>
      <point x="98.0" y="624.0" type="curve" smooth="yes"/>
    </contour>
  </outline>
</glyph>
<glyph name="uni0663" format="2">
  <advance width="460"/>
  <unicode hex="0663"/>
  <outline>
    <contour>
      <point x="30.0" y="624.0" type="line"/>
      <point x="62.0" y="624.0" type="line"/>
      <point x="62.0" y="0.0" type="line"/>
      <point x="30.0" y="0.0" type="line"/>
    </contour>
    <contour>
      <point x="214.0" y="624.0" type="line"/>
      <point x="246.0" y="624.0" type="line"/>
      <point x="246.0" y="477.0" type="line" smooth="yes"/>
      <point x="246.0" y="439.3623046875"/>
      <point x="216.595703125" y="409.0"/>
      <point x="177.0" y="409.0" type="curve" smooth="yes"/>
      <point x="47.0" y="409.0" type="line"/>
      <point x="47.0" y="441.0" type="line"/>
      <point x="177.0" y="441.0" type="line" smooth="yes"/>
      <point x="199.404296875" y="441.0"/>
      <point x="214.0" y="456.6376953125"/>
      <point x="214.0" y="477.0" type="curve" smooth="yes"/>
    </contour>
    <contour>
      <point x="398.0" y="624.0" type="line"/>
      <point x="430.0" y="624.0" type="line"/>
      <point x="430.0" y="477.0" type="line" smooth="yes"/>
      <point x="430.0" y="439.3623046875"/>
      <point x="400.595703125" y="409.0"/>
      <point x="361.0" y="409.0" type="curve" smooth="yes"/>
      <point x="238.0" y="409.0" type="line"/>
      <point x="238.0" y="441.0" type="line"/>
      <point x="361.0" y="441.0" type="line" smooth="yes"/>
      <point x="383.404296875" y="441.0"/>
      <point x="398.0" y="456.6376953125"/>
      <point x="398.0" y="477.0" type="curve" smooth="yes"/>
    </contour>
  </outline>
</glyph>
<glyph name="uni0664" format="2">
  <advance width="387"/>
  <unicode hex="0664"/>
  <outline>
    <contour>
      <point x="238.3291015625" y="584.8681640625" type="line"/>
      <point x="257.3447265625" y="559.1318359375" type="line"/>
      <point x="100.283203125" y="443.0859375" type="line" smooth="yes"/>
      <point x="88.19921875" y="434.3349609375"/>
      <point x="78.5908203125" y="426.90234375"/>
      <point x="75.3037109375" y="422.275390625" type="curve" smooth="yes"/>
      <point x="73.9140625" y="420.318359375"/>
      <point x="66.923828125" y="418.3916015625"/>
      <point x="91.9013671875" y="401.1845703125" type="curve" smooth="yes"/>
      <point x="219.9013671875" y="313.1845703125" type="line" smooth="yes"/>
      <point x="227.0576171875" y="308.2646484375"/>
      <point x="229.02734375" y="298.14453125"/>
      <point x="223.9794921875" y="290.875" type="curve" smooth="yes"/>
      <point x="89.9189453125" y="97.787109375" type="line" smooth="yes"/>
      <point x="77.8994140625" y="80.9599609375"/>
      <point x="62.013671875" y="52.203125"/>
      <point x="62.0" y="39.4306640625" type="curve" smooth="yes"/>
      <point x="61.99609375" y="35.537109375"/>
      <point x="59.3173828125" y="33.0"/>
      <point x="74.865234375" y="33.0" type="curve" smooth="yes"/>
      <point x="357.8935546875" y="32.0" type="line"/>
      <point x="357.7802734375" y="0.0" type="line"/>
      <point x="74.7802734375" y="1.0" type="line" smooth="yes"/>
      <point x="47.640625" y="1.0"/>
      <point x="29.9765625" y="17.181640625"/>
      <point x="30.0" y="39.46484375" type="curve" smooth="yes"/>
      <point x="30.0302734375" y="67.888671875"/>
      <point x="51.3154296875" y="98.7978515625"/>
      <point x="63.7548828125" y="116.212890625" type="curve" smooth="yes"/>
      <point x="188.52734375" y="295.921875" type="line"/>
      <point x="73.7724609375" y="374.8154296875" type="line" smooth="yes"/>
      <point x="20.9423828125" y="411.208984375"/>
      <point x="46.3046875" y="443.5078125"/>
      <point x="81.390625" y="468.9140625" type="curve" smooth="yes"/>
    </contour>
  </outline>
</glyph>
<glyph name="uni0666" format="2">
  <advance width="396"/>
  <unicode hex="0666"/>
  <outline>
    <contour>
      <point x="30.0" y="592.0" type="line"/>
      <point x="30.0" y="624.0" type="line"/>
      <point x="298.0" y="624.0" type="line" smooth="yes"/>
      <point x="336.048828125" y="624.0"/>
      <point x="366.0" y="593.3095703125"/>
      <point x="366.0" y="554.0" type="curve" smooth="yes"/>
      <point x="366.0" y="0.0" type="line"/>
      <point x="334.0" y="0.0" type="line"/>
      <point x="334.0" y="554.0" type="line" smooth="yes"/>
      <point x="334.0" y="576.6904296875"/>
      <point x="317.951171875" y="592.0"/>
      <point x="298.0" y="592.0" type="curve" smooth="yes"/>
    </contour>
  </outline>
</glyph>
<glyph name="uni0667" format="2">
  <advance width="478"/>
  <unicode hex="0667"/>
  <outline>
    <contour>
      <point x="417.759765625" y="618.0498046875" type="line"/>
      <point x="448.71875" y="609.9501953125" type="line"/>
      <point x="296.71875" y="28.9501953125" type="line" smooth="yes"/>
      <point x="292.6328125" y="13.4375"/>
      <point x="276.4921875" y="4.0341796875"/>
      <point x="258.73828125" y="3.337890625" type="curve" smooth="yes"/>
      <point x="243.259765625" y="2.73046875"/>
      <point x="221.6875" y="10.318359375"/>
      <point x="216.0" y="28.1220703125" type="curve" smooth="yes"/>
      <point x="30.0" y="609.1220703125" type="line"/>
      <point x="60.4765625" y="618.8779296875" type="line"/>
      <point x="245.84375" y="39.8583984375" type="line"/>
      <point x="248.275390625" y="34.501953125"/>
      <point x="265.9375" y="34.3798828125"/>
      <point x="267.109375" y="40.3876953125" type="curve"/>
    </contour>
  </outline>
</glyph>
<glyph name="uni0669" format="2">
  <advance width="371"/>
  <unicode hex="0669"/>
  <outline>
    <contour>
      <point x="325.912109375" y="329.861328125" type="line"/>
      <point x="254.2353515625" y="325.3798828125"/>
      <point x="116.509765625" y="304.6943359375"/>
      <point x="54.7568359375" y="393.892578125" type="curve" smooth="yes"/>
      <point x="54.6337890625" y="394.0712890625"/>
      <point x="54.4072265625" y="394.4140625"/>
      <point x="54.2548828125" y="394.6640625" type="curve" smooth="yes"/>
      <point x="2.712890625" y="479.1064453125"/>
      <point x="40.16796875" y="572.9599609375"/>
      <point x="102.5341796875" y="607.6611328125" type="curve"/>
      <point x="158.0205078125" y="645.2548828125"/>
      <point x="268.55078125" y="642.4677734375"/>
      <point x="318.4736328125" y="568.0693359375" type="curve" smooth="yes"/>
      <point x="333.22265625" y="546.0888671875"/>
      <point x="341.912109375" y="518.2236328125"/>
      <point x="341.912109375" y="485.0" type="curve" smooth="yes"/>
      <point x="341.912109375" y="0.0" type="line"/>
      <point x="309.912109375" y="0.0" type="line"/>
      <point x="309.912109375" y="485.0" type="line" smooth="yes"/>
      <point x="309.912109375" y="513.333984375"/>
      <point x="302.572265625" y="534.8427734375"/>
      <point x="291.115234375" y="551.3916015625" type="curve" smooth="yes"/>
      <point x="249.5869140625" y="611.3779296875"/>
      <point x="163.5283203125" y="604.095703125"/>
      <point x="118.482421875" y="579.904296875" type="curve" smooth="yes"/>
      <point x="72.146484375" y="555.01953125"/>
      <point x="40.181640625" y="480.1513671875"/>
      <point x="81.326171875" y="411.7333984375" type="curve"/>
      <point x="129.052734375" y="344.052734375"/>
      <point x="249.3232421875" y="357.0859375"/>
      <point x="325.912109375" y="361.8740234375" type="curve"/>
    </contour>
  </outline>
</glyph>
<glyph name="uni066B" format="2">
  <advance width="112"/>
  <unicode hex="066B"/>
  <outline>
    <contour>
      <point x="20.0" y="67.0" type="line"/>
      <point x="44.0" y="67.0" type="line"/>
      <point x="44.0" y="-94.0" type="line" smooth="yes"/>
      <point x="44.0" y="-116.0"/>
      <point x="34.0" y="-156.0"/>
      <point x="-17.0" y="-156.0" type="curve" smooth="yes"/>
      <point x="-67.0" y="-156.0" type="line"/>
      <point x="-67.0" y="-132.0" type="line"/>
      <point x="-17.0" y="-132.0" type="line" smooth="yes"/>
      <point x="10.0" y="-132.0"/>
      <point x="20.0" y="-116.0"/>
      <point x="20.0" y="-94.0" type="curve" smooth="yes"/>
    </contour>
  </outline>
</glyph>
<glyph name="uni0670" format="2">
  <unicode hex="0670"/>
  <anchor x="0" y="0" name="_markAbove"/>
  <outline>
    <contour>
      <point x="-16.0" y="0.0" type="curve"/>
      <point x="-16.0" y="183.0" type="line"/>
      <point x="16.0" y="183.0" type="line"/>
      <point x="16.0" y="32.0" type="line" smooth="yes"/>
      <point x="16.0" y="18.0"/>
      <point x="5.0" y="0.0"/>
    </contour>
  </outline>
</glyph>
<glyph name="uni06D4" format="2">
  <advance width="262"/>
  <unicode hex="06D4"/>
  <outline>
    <contour>
      <point x="92.0" y="32.0" type="line"/>
      <point x="194.0" y="32.0" type="line"/>
      <point x="170.0" y="0.0" type="line"/>
      <point x="68.0" y="0.0" type="line"/>
    </contour>
  </outline>
</glyph>
<glyph name="uni06D5" format="2">
  <advance width="1000"/>
  <unicode hex="06D5"/>
  <outline>
    <contour>
      <point x="0" y="-200" type="line"/>
      <point x="0" y="800" type="line"/>
      <point x="1000" y="800" type="line"/>
      <point x="1000" y="-200" type="line"/>
    </contour>
  </outline>
</glyph>
<glyph name="uni06F4" format="2">
  <advance width="460"/>
  <unicode hex="06F4"/>
  <outline>
    <contour>
      <point x="246.0" y="409.0" type="line"/>
      <point x="214.0" y="409.0" type="line"/>
      <point x="214.0" y="486.0" type="line" smooth="yes"/>
      <point x="214.0" y="564.0"/>
      <point x="273.0" y="624.0"/>
      <point x="353.0" y="624.0" type="curve" smooth="yes"/>
      <point x="413.0" y="624.0" type="line"/>
      <point x="413.0" y="592.0" type="line"/>
      <point x="353.0" y="592.0" type="line" smooth="yes"/>
      <point x="291.00000000009857" y="592.0"/>
      <point x="246.0" y="546.0"/>
      <point x="246.0" y="486.0" type="curve" smooth="yes"/>
    </contour>
    <contour>
      <point x="30.0" y="624.0" type="line"/>
      <point x="62.0" y="624.0" type="line"/>
      <point x="62.0" y="0.0" type="line"/>
      <point x="30.0" y="0.0" type="line"/>
    </contour>
    <contour>
      <point x="414.0" y="409.0" type="line"/>
      <point x="47.0" y="409.0" type="line"/>
      <point x="47.0" y="441.0" type="line"/>
      <point x="414.0" y="441.0" type="line"/>
    </contour>
  </outline>
</glyph>
<glyph name="ar1Dot.above" format="2">
  <anchor x="0" y="0" name="_dotAbove"/>
  <anchor x="0" y="127.0" name="markAbove"/>
  <outline>
    <contour>
      <point x="-25.0" y="0.0" type="curve" smooth="yes"/>
      <point x="-25.0" y="14.0"/>
      <point x="-14.0" y="25.0"/>
      <point x="0.0" y="25.0" type="curve" smooth="yes"/>
      <point x="14.0" y="25.0"/>
      <point x="25.0" y="14.0"/>
      <point x="25.0" y="0.0" type="curve" smooth="yes"/>
      <point x="25.0" y="-14.0"/>
      <point x="14.0" y="-25.0"/>
      <point x="0.0" y="-25.0" type="curve" smooth="yes"/>
      <point x="-14.0" y="-25.0"/>
      <point x="-25.0" y="-14.0"/>
    </contour>
  </outline>
</glyph>
<glyph name="arAin.init" format="2">
  <advance width="508"/>
  <outline>
    <contour>
      <point x="0.0" y="0.0" type="line"/>
      <point x="0.0" y="32.0" type="line"/>
      <point x="468.0" y="32.0" type="line"/>
      <point x="468.0" y="0.0" type="line"/>
    </contour>
    <contour>
      <point x="423.0" y="285.0" type="curve"/>
      <point x="413.0" y="255.0" type="line"/>
      <point x="282.0" y="294.0"/>
      <point x="199.0" y="282.0"/>
      <point x="168.0" y="250.0" type="curve" smooth="yes"/>
      <point x="135.0" y="216.0"/>
      <point x="146.0" y="140.0"/>
      <point x="252.0" y="38.0" type="curve"/>
      <point x="230.0" y="16.0" type="line"/>
      <point x="125.0" y="118.0"/>
      <point x="90.0" y="215.0"/>
      <point x="145.0" y="272.0" type="curve" smooth="yes"/>
      <point x="191.0" y="320.0"/>
      <point x="290.0" y="325.0"/>
    </contour>
    <component base="ar3IDot.below" xOffset="254.0" yOffset="-150.0" identifier="mark_ar3IDot.below"/>
    <component base="ar2Dot.below" xOffset="254.0" yOffset="-150.0" identifier="mark_ar2Dot.below"/>
    <component base="uni0650" xOffset="254.0" yOffset="-170.0" identifier="mark_uni0650"/>
    <component base="uni0656" xOffset="254.0" yOffset="-150.0" identifier="mark_uni0656"/>
    <component base="ar3IDot.above" xOffset="253.0" yOffset="462.0" identifier="mark_ar3IDot.above"/>
    <component base="ar2Dot.above" xOffset="253.0" yOffset="462.0" identifier="mark_ar2Dot.above"/>
    <component base="uni0652" xOffset="253.0" yOffset="499.0" identifier="mark_uni0652"/>
    <component base="uni064F" xOffset="247.0" yOffset="494.0" identifier="mark_uni064F"/>
    <component base="uni064C" xOffset="252.0" yOffset="494.0" identifier="mark_uni064C"/>
    <component base="uni0670" xOffset="253.0" yOffset="462.0" identifier="mark_uni0670"/>
    <component base="uni064B" xOffset="253.0" yOffset="500.0" identifier="mark_uni064B"/>
    <component base="uni064E" xOffset="253.0" yOffset="482.0" identifier="mark_uni064E"/>
    <component base="uni0651" xOffset="253.0" yOffset="500.0" identifier="mark_uni0651"/>
    <component base="ar1Dot.above" xOffset="253.0" yOffset="462.0" identifier="mark_ar1Dot.above"/>
    <component base="ar3Dot.above" xOffset="253.0" yOffset="462.0" identifier="mark_ar3Dot.above"/>
    <component base="arTah.above" xOffset="253.0" yOffset="462.0" identifier="mark_arTah.above"/>
    <component base="uni064D" xOffset="254.0" yOffset="-179.0" identifier="mark_uni064D"/>
    <component base="ar1Dot.below" xOffset="254.0" yOffset="-150.0" identifier="mark_ar1Dot.below"/>
    <component base="ar3Dot.below" xOffset="254.0" yOffset="-150.0" identifier="mark_ar3Dot.below"/>
  </outline>
</glyph>
<glyph name="arAin.isol" format="2">
  <advance width="426"/>
  <outline>
    <contour>
      <point x="386.0" y="-240.0" type="line"/>
      <point x="386.0" y="-272.0" type="line"/>
      <point x="98.0" y="-272.0" type="line" smooth="yes"/>
      <point x="64.0" y="-272.0"/>
      <point x="40.0" y="-243.0"/>
      <point x="40.0" y="-209.0" type="curve" smooth="yes"/>
      <point x="40.0" y="-32.0" type="line" smooth="yes"/>
      <point x="41.0" y="-1.0"/>
      <point x="58.0" y="32.0"/>
      <point x="100.0" y="32.0" type="curve" smooth="yes"/>
      <point x="386.0" y="32.0" type="line"/>
      <point x="386.0" y="0.0" type="line"/>
      <point x="100.0" y="0.0" type="line" smooth="yes"/>
      <point x="80.0" y="0.0"/>
      <point x="73.0" y="-10.0"/>
      <point x="72.0" y="-32.0" type="curve"/>
      <point x="72.0" y="-209.0" type="line" smooth="yes"/>
      <point x="72.0" y="-229.0"/>
      <point x="84.0" y="-240.0"/>
      <point x="98.0" y="-240.0" type="curve" smooth="yes"/>
    </contour>
    <contour>
      <point x="353.0" y="234.0" type="curve"/>
      <point x="341.0" y="204.0" type="line"/>
      <point x="324.0" y="211.0"/>
      <point x="309.0" y="217.0"/>
      <point x="295.0" y="221.0" type="curve" smooth="yes"/>
      <point x="233.0" y="238.0"/>
      <point x="188.0" y="231.0"/>
      <point x="168.0" y="212.0" type="curve" smooth="yes"/>
      <point x="141.0" y="187.0"/>
      <point x="141.0" y="124.0"/>
      <point x="230.0" y="28.0" type="curve"/>
      <point x="206.0" y="6.0" type="line"/>
      <point x="117.0" y="103.0"/>
      <point x="97.0" y="189.0"/>
      <point x="147.0" y="235.0" type="curve" smooth="yes"/>
      <point x="180.0" y="266.0"/>
      <point x="237.0" y="270.0"/>
      <point x="303.0" y="251.0" type="curve" smooth="yes"/>
      <point x="319.0" y="247.0"/>
      <point x="336.0" y="241.0"/>
    </contour>
    <component base="ar3IDot.below" xOffset="236.0" yOffset="-117.0" identifier="mark_ar3IDot.below"/>
    <component base="ar2Dot.below" xOffset="236.0" yOffset="-117.0" identifier="mark_ar2Dot.below"/>
    <component base="uni0650" xOffset="236.0" yOffset="-137.0" identifier="mark_uni0650"/>
    <component base="uni0656" xOffset="236.0" yOffset="-117.0" identifier="mark_uni0656"/>
    <component base="ar3IDot.above" xOffset="213.0" yOffset="413.0" identifier="mark_ar3IDot.above"/>
    <component base="ar2Dot.above" xOffset="213.0" yOffset="413.0" identifier="mark_ar2Dot.above"/>
    <component base="uni0652" xOffset="213.0" yOffset="450.0" identifier="mark_uni0652"/>
    <component base="uni064F" xOffset="207.0" yOffset="445.0" identifier="mark_uni064F"/>
    <component base="uni064C" xOffset="212.0" yOffset="445.0" identifier="mark_uni064C"/>
    <component base="uni0670" xOffset="213.0" yOffset="413.0" identifier="mark_uni0670"/>
    <component base="uni064B" xOffset="213.0" yOffset="451.0" identifier="mark_uni064B"/>
    <component base="uni064E" xOffset="213.0" yOffset="433.0" identifier="mark_uni064E"/>
    <component base="uni0651" xOffset="213.0" yOffset="451.0" identifier="mark_uni0651"/>
    <component base="ar1Dot.above" xOffset="213.0" yOffset="413.0" identifier="mark_ar1Dot.above"/>
    <component base="ar3Dot.above" xOffset="213.0" yOffset="413.0" identifier="mark_ar3Dot.above"/>
    <component base="arTah.above" xOffset="213.0" yOffset="413.0" identifier="mark_arTah.above"/>
    <component base="uni064D" xOffset="236.0" yOffset="-146.0" identifier="mark_uni064D"/>
    <component base="ar1Dot.below" xOffset="236.0" yOffset="-117.0" identifier="mark_ar1Dot.below"/>
    <component base="ar3Dot.below" xOffset="236.0" yOffset="-117.0" identifier="mark_ar3Dot.below"/>
  </outline>
</glyph>
<glyph name="arAlef.fina.1" format="2">
  <outline>
    <contour>
      <point x="106.0" y="639.0" type="line"/>
      <point x="136.0" y="647.0" type="line"/>
      <point x="267.0" y="198.0" type="line"/>
      <point x="237.0" y="190.0" type="line"/>
    </contour>
    <contour>
      <point x="235.0" y="198.0" type="curve"/>
      <point x="267.0" y="198.0" type="line"/>
      <point x="256.0" y="135.0"/>
      <point x="220.0" y="76.0"/>
      <point x="129.0" y="25.0" type="curve"/>
      <point x="107.0" y="25.0" type="line"/>
      <point x="132.0" y="39.0"/>
      <point x="237.0" y="96.0"/>
    </contour>
  </outline>
</glyph>
<glyph name="arAlef.isol" format="2">
  <advance width="192"/>
  <outline>
    <contour>
      <point x="80.0" y="624.0" type="line"/>
      <point x="112.0" y="624.0" type="line"/>
      <point x="112.0" y="33.0" type="line" smooth="yes"/>
      <point x="112.0" y="19.0"/>
      <point x="101.0" y="1.0"/>
      <point x="80.0" y="1.0" type="curve"/>
    </contour>
  </outline>
</glyph>
<glyph name="arBeh.init" format="2">
  <advance width="398"/>
  <outline>
    <contour>
      <point x="326.0" y="340.0" type="line"/>
      <point x="358.0" y="340.0" type="line"/>
      <point x="358.0" y="67.0" type="line" smooth="yes"/>
      <point x="358.0" y="29.0"/>
      <point x="328.0" y="0.0"/>
      <point x="289.0" y="0.0" type="curve" smooth="yes"/>
      <point x="0.0" y="0.0" type="line"/>
      <point x="0.0" y="32.0" type="line"/>
      <point x="289.0" y="32.0" type="line" smooth="yes"/>
      <point x="312.0" y="32.0"/>
      <point x="326.0" y="47.0"/>
      <point x="326.0" y="67.0" type="curve" smooth="yes"/>
    </contour>
    <component base="arTah.above" xOffset="199.0" yOffset="490.0" identifier="mark_arTah.above"/>
    <component base="ar3Dot.above" xOffset="199.0" yOffset="490.0" identifier="mark_ar3Dot.above"/>
    <component base="ar1Dot.above" xOffset="199.0" yOffset="490.0" identifier="mark_ar1Dot.above"/>
    <component base="uni0651" xOffset="199.0" yOffset="528.0" identifier="mark_uni0651"/>
    <component base="uni064E" xOffset="199.0" yOffset="510.0" identifier="mark_uni064E"/>
    <component base="uni064B" xOffset="199.0" yOffset="528.0" identifier="mark_uni064B"/>
    <component base="uni0654" xOffset="199.0" yOffset="490.0" identifier="mark_uni0654"/>
    <component base="arSad.above" xOffset="199.0" yOffset="490.0" identifier="mark_arSad.above"/>
    <component base="ar3IDot.below" xOffset="199.0" yOffset="-150.0" identifier="mark_ar3IDot.below"/>
    <component base="ar2Dot.below" xOffset="199.0" yOffset="-150.0" identifier="mark_ar2Dot.below"/>
    <component base="uni0650" xOffset="199.0" yOffset="-170.0" identifier="mark_uni0650"/>
    <component base="uni0656" xOffset="199.0" yOffset="-150.0" identifier="mark_uni0656"/>
    <component base="uni064D" xOffset="199.0" yOffset="-179.0" identifier="mark_uni064D"/>
    <component base="ar1Dot.below" xOffset="199.0" yOffset="-150.0" identifier="mark_ar1Dot.below"/>
    <component base="ar3Dot.below" xOffset="199.0" yOffset="-150.0" identifier="mark_ar3Dot.below"/>
    <component base="arKaf.above" xOffset="199.0" yOffset="490.0" identifier="mark_arKaf.above"/>
    <component base="uni0653" xOffset="199.0" yOffset="490.0" identifier="mark_uni0653"/>
    <component base="uni0670" xOffset="199.0" yOffset="490.0" identifier="mark_uni0670"/>
    <component base="uni064C" xOffset="198.0" yOffset="522.0" identifier="mark_uni064C"/>
    <component base="uni064F" xOffset="193.0" yOffset="522.0" identifier="mark_uni064F"/>
    <component base="uni0652" xOffset="199.0" yOffset="527.0" identifier="mark_uni0652"/>
    <component base="ar2Dot.above" xOffset="199.0" yOffset="490.0" identifier="mark_ar2Dot.above"/>
    <component base="ar3IDot.above" xOffset="199.0" yOffset="490.0" identifier="mark_ar3IDot.above"/>
  </outline>
</glyph>
<glyph name="arBeh.isol" format="2">
  <advance width="674"/>
  <outline>
    <contour>
      <point x="602.0" y="263.0" type="line"/>
      <point x="634.0" y="263.0" type="line"/>
      <point x="634.0" y="68.0" type="line" smooth="yes"/>
      <point x="634.0" y="32.0"/>
      <point x="600.0" y="0.0"/>
      <point x="566.0" y="0.0" type="curve" smooth="yes"/>
      <point x="174.0" y="0.0" type="line" smooth="yes"/>
      <point x="104.0" y="0.0"/>
      <point x="40.0" y="53.0"/>
      <point x="40.0" y="123.0" type="curve" smooth="yes"/>
      <point x="40.0" y="263.0" type="line"/>
      <point x="72.0" y="263.0" type="line"/>
      <point x="72.0" y="123.0" type="line" smooth="yes"/>
      <point x="72.0" y="73.0"/>
      <point x="118.0" y="32.0"/>
      <point x="174.0" y="32.0" type="curve" smooth="yes"/>
      <point x="566.0" y="32.0" type="line" smooth="yes"/>
      <point x="582.0" y="32.0"/>
      <point x="602.0" y="52.0"/>
      <point x="602.0" y="68.0" type="curve" smooth="yes"/>
    </contour>
  </outline>
</glyph>
<glyph name="arDal.isol" format="2">
  <advance width="412"/>
  <outline>
    <contour>
      <point x="163.0" y="280.0" type="curve"/>
      <point x="177.0" y="308.0" type="line"/>
      <point x="245.0" y="274.0"/>
      <point x="369.0" y="205.0"/>
      <point x="372.0" y="68.0" type="curve" smooth="yes"/>
      <point x="373.0" y="39.0"/>
      <point x="353.0" y="0.0"/>
      <point x="304.0" y="0.0" type="curve" smooth="yes"/>
      <point x="40.0" y="0.0" type="line"/>
      <point x="40.0" y="32.0" type="line"/>
      <point x="304.0" y="32.0" type="line" smooth="yes"/>
      <point x="331.0" y="32.0"/>
      <point x="340.0" y="51.0"/>
      <point x="340.0" y="68.0" type="curve" smooth="yes"/>
      <point x="334.0" y="186.0"/>
      <point x="236.0" y="244.0"/>
    </contour>
    <component base="arTah.above" xOffset="198.0" yOffset="380.0" identifier="mark_arTah.above"/>
    <component base="ar3Dot.above" xOffset="198.0" yOffset="380.0" identifier="mark_ar3Dot.above"/>
    <component base="ar1Dot.above" xOffset="198.0" yOffset="380.0" identifier="mark_ar1Dot.above"/>
    <component base="uni0651" xOffset="198.0" yOffset="418.0" identifier="mark_uni0651"/>
    <component base="uni064E" xOffset="198.0" yOffset="400.0" identifier="mark_uni064E"/>
    <component base="uni064B" xOffset="198.0" yOffset="418.0" identifier="mark_uni064B"/>
    <component base="ar3IDot.below" xOffset="184.0" yOffset="-72.0" identifier="mark_ar3IDot.below"/>
    <component base="ar2Dot.below" xOffset="184.0" yOffset="-72.0" identifier="mark_ar2Dot.below"/>
    <component base="uni0650" xOffset="184.0" yOffset="-92.0" identifier="mark_uni0650"/>
    <component base="uni0656" xOffset="184.0" yOffset="-72.0" identifier="mark_uni0656"/>
    <component base="uni064D" xOffset="184.0" yOffset="-101.0" identifier="mark_uni064D"/>
    <component base="ar1Dot.below" xOffset="184.0" yOffset="-72.0" identifier="mark_ar1Dot.below"/>
    <component base="ar3Dot.below" xOffset="184.0" yOffset="-72.0" identifier="mark_ar3Dot.below"/>
    <component base="uni0670" xOffset="198.0" yOffset="380.0" identifier="mark_uni0670"/>
    <component base="uni064C" xOffset="197.0" yOffset="412.0" identifier="mark_uni064C"/>
    <component base="uni064F" xOffset="192.0" yOffset="412.0" identifier="mark_uni064F"/>
    <component base="uni0652" xOffset="198.0" yOffset="417.0" identifier="mark_uni0652"/>
    <component base="ar2Dot.above" xOffset="198.0" yOffset="380.0" identifier="mark_ar2Dot.above"/>
    <component base="ar3IDot.above" xOffset="198.0" yOffset="380.0" identifier="mark_ar3IDot.above"/>
  </outline>
</glyph>
<glyph name="arFeh.fina" format="2">
  <advance width="830"/>
  <anchor x="569.0" y="450.0" name="dotAbove"/>
  <anchor x="569.0" y="488.0" name="markAbove"/>
  <anchor x="379.0" y="-299.0" name="dotBelow"/>
  <anchor x="379.0" y="-319.0" name="markBelow"/>
  <outline>
    <contour>
      <point x="830.0" y="32.0" type="line"/>
      <point x="830.0" y="0.0" type="line"/>
      <point x="698.0" y="0.0" type="line" smooth="yes"/>
      <point x="539.0" y="-3.0"/>
      <point x="476.0" y="-4.0"/>
      <point x="430.0" y="73.0" type="curve" smooth="yes"/>
      <point x="385.0" y="148.0"/>
      <point x="424.0" y="239.0"/>
      <point x="479.0" y="275.0" type="curve" smooth="yes"/>
      <point x="541.0" y="315.0"/>
      <point x="650.0" y="308.0"/>
      <point x="697.0" y="234.0" type="curve" smooth="yes"/>
      <point x="710.0" y="213.0"/>
      <point x="718.0" y="186.0"/>
      <point x="718.0" y="155.0" type="curve" smooth="yes"/>
      <point x="718.0" y="-129.0" type="line" smooth="yes"/>
      <point x="718.0" y="-164.0"/>
      <point x="690.0" y="-199.0"/>
      <point x="647.0" y="-199.0" type="curve" smooth="yes"/>
      <point x="155.0" y="-199.0" type="line" smooth="yes"/>
      <point x="91.0" y="-199.0"/>
      <point x="40.0" y="-156.0"/>
      <point x="40.0" y="-89.0" type="curve" smooth="yes"/>
      <point x="40.0" y="63.0" type="line"/>
      <point x="72.0" y="63.0" type="line"/>
      <point x="72.0" y="-89.0" type="line" smooth="yes"/>
      <point x="72.0" y="-138.0"/>
      <point x="105.0" y="-167.0"/>
      <point x="155.0" y="-167.0" type="curve" smooth="yes"/>
      <point x="647.0" y="-167.0" type="line" smooth="yes"/>
      <point x="672.0" y="-167.0"/>
      <point x="686.0" y="-148.0"/>
      <point x="686.0" y="-129.0" type="curve"/>
      <point x="686.0" y="155.0" type="line"/>
      <point x="686.0" y="181.0"/>
      <point x="680.0" y="201.0"/>
      <point x="670.0" y="217.0" type="curve" smooth="yes"/>
      <point x="635.0" y="273.0"/>
      <point x="547.0" y="281.0"/>
      <point x="497.0" y="249.0" type="curve" smooth="yes"/>
      <point x="454.0" y="221.0"/>
      <point x="423.0" y="146.0"/>
      <point x="458.0" y="89.0" type="curve" smooth="yes"/>
      <point x="494.0" y="29.0"/>
      <point x="538.0" y="29.0"/>
      <point x="693.0" y="32.0" type="curve" smooth="yes"/>
    </contour>
  </outline>
</glyph>
<glyph name="arFeh.init" format="2">
  <advance width="463"/>
  <outline>
    <contour>
      <point x="0.0" y="32.0" type="line"/>
      <point x="352.0" y="32.0" type="line" smooth="yes"/>
      <point x="377.0" y="32.0"/>
      <point x="391.0" y="51.0"/>
      <point x="391.0" y="70.0" type="curve" smooth="yes"/>
      <point x="391.0" y="295.0" type="line" smooth="yes"/>
      <point x="391.0" y="321.0"/>
      <point x="385.0" y="341.0"/>
      <point x="375.0" y="357.0" type="curve" smooth="yes"/>
      <point x="340.0" y="413.0"/>
      <point x="252.0" y="421.0"/>
      <point x="202.0" y="389.0" type="curve" smooth="yes"/>
      <point x="159.0" y="361.0"/>
      <point x="128.0" y="286.0"/>
      <point x="163.0" y="229.0" type="curve" smooth="yes"/>
      <point x="207.0" y="156.0"/>
      <point x="290.0" y="166.0"/>
      <point x="405.0" y="178.0" type="curve"/>
      <point x="405.0" y="146.0" type="line"/>
      <point x="312.0" y="134.0"/>
      <point x="192.0" y="119.0"/>
      <point x="135.0" y="213.0" type="curve" smooth="yes"/>
      <point x="90.0" y="288.0"/>
      <point x="129.0" y="379.0"/>
      <point x="184.0" y="415.0" type="curve" smooth="yes"/>
      <point x="246.0" y="455.0"/>
      <point x="355.0" y="448.0"/>
      <point x="402.0" y="374.0" type="curve" smooth="yes"/>
      <point x="415.0" y="353.0"/>
      <point x="423.0" y="326.0"/>
      <point x="423.0" y="295.0" type="curve" smooth="yes"/>
      <point x="423.0" y="70.0" type="line" smooth="yes"/>
      <point x="423.0" y="35.0"/>
      <point x="395.0" y="0.0"/>
      <point x="352.0" y="0.0" type="curve" smooth="yes"/>
      <point x="0.0" y="0.0" type="line"/>
    </contour>
    <component base="arTah.above" xOffset="274.0" yOffset="590.0" identifier="mark_arTah.above"/>
    <component base="ar3Dot.above" xOffset="274.0" yOffset="590.0" identifier="mark_ar3Dot.above"/>
    <component base="ar1Dot.above" xOffset="274.0" yOffset="590.0" identifier="mark_ar1Dot.above"/>
    <component base="uni0651" xOffset="274.0" yOffset="628.0" identifier="mark_uni0651"/>
    <component base="uni064E" xOffset="274.0" yOffset="610.0" identifier="mark_uni064E"/>
    <component base="uni064B" xOffset="274.0" yOffset="628.0" identifier="mark_uni064B"/>
    <component base="ar3IDot.below" xOffset="231.0" yOffset="-150.0" identifier="mark_ar3IDot.below"/>
    <component base="ar2Dot.below" xOffset="231.0" yOffset="-150.0" identifier="mark_ar2Dot.below"/>
    <component base="uni0650" xOffset="231.0" yOffset="-170.0" identifier="mark_uni0650"/>
    <component base="uni0656" xOffset="231.0" yOffset="-150.0" identifier="mark_uni0656"/>
    <component base="uni064D" xOffset="231.0" yOffset="-179.0" identifier="mark_uni064D"/>
    <component base="ar1Dot.below" xOffset="231.0" yOffset="-150.0" identifier="mark_ar1Dot.below"/>
    <component base="ar3Dot.below" xOffset="231.0" yOffset="-150.0" identifier="mark_ar3Dot.below"/>
    <component base="uni0670" xOffset="274.0" yOffset="590.0" identifier="mark_uni0670"/>
    <component base="uni064C" xOffset="273.0" yOffset="622.0" identifier="mark_uni064C"/>
    <component base="uni064F" xOffset="268.0" yOffset="622.0" identifier="mark_uni064F"/>
    <component base="uni0652" xOffset="274.0" yOffset="627.0" identifier="mark_uni0652"/>
    <component base="ar2Dot.above" xOffset="274.0" yOffset="590.0" identifier="mark_ar2Dot.above"/>
    <component base="ar3IDot.above" xOffset="274.0" yOffset="590.0" identifier="mark_ar3IDot.above"/>
  </outline>
</glyph>
<glyph name="arFeh.isol" format="2">
  <advance width="758"/>
  <outline>
    <contour>
      <point x="700.0" y="6.0" type="line"/>
      <point x="607.0" y="-6.0"/>
      <point x="487.0" y="-21.0"/>
      <point x="430.0" y="73.0" type="curve" smooth="yes"/>
      <point x="385.0" y="148.0"/>
      <point x="424.0" y="239.0"/>
      <point x="479.0" y="275.0" type="curve" smooth="yes"/>
      <point x="541.0" y="315.0"/>
      <point x="650.0" y="308.0"/>
      <point x="697.0" y="234.0" type="curve" smooth="yes"/>
      <point x="710.0" y="213.0"/>
      <point x="718.0" y="186.0"/>
      <point x="718.0" y="155.0" type="curve" smooth="yes"/>
      <point x="718.0" y="-129.0" type="line" smooth="yes"/>
      <point x="718.0" y="-164.0"/>
      <point x="690.0" y="-199.0"/>
      <point x="647.0" y="-199.0" type="curve" smooth="yes"/>
      <point x="155.0" y="-199.0" type="line" smooth="yes"/>
      <point x="91.0" y="-199.0"/>
      <point x="40.0" y="-156.0"/>
      <point x="40.0" y="-89.0" type="curve" smooth="yes"/>
      <point x="40.0" y="63.0" type="line"/>
      <point x="72.0" y="63.0" type="line"/>
      <point x="72.0" y="-89.0" type="line" smooth="yes"/>
      <point x="72.0" y="-138.0"/>
      <point x="105.0" y="-167.0"/>
      <point x="155.0" y="-167.0" type="curve" smooth="yes"/>
      <point x="647.0" y="-167.0" type="line" smooth="yes"/>
      <point x="672.0" y="-167.0"/>
      <point x="686.0" y="-148.0"/>
      <point x="686.0" y="-129.0" type="curve" smooth="yes"/>
      <point x="686.0" y="155.0" type="line" smooth="yes"/>
      <point x="686.0" y="181.0"/>
      <point x="680.0" y="201.0"/>
      <point x="670.0" y="217.0" type="curve" smooth="yes"/>
      <point x="635.0" y="273.0"/>
      <point x="547.0" y="281.0"/>
      <point x="497.0" y="249.0" type="curve" smooth="yes"/>
      <point x="454.0" y="221.0"/>
      <point x="423.0" y="146.0"/>
      <point x="458.0" y="89.0" type="curve" smooth="yes"/>
      <point x="502.0" y="16.0"/>
      <point x="585.0" y="26.0"/>
      <point x="700.0" y="38.0" type="curve"/>
    </contour>
    <component base="arTah.above" xOffset="569.0" yOffset="450.0" identifier="mark_arTah.above"/>
    <component base="ar3Dot.above" xOffset="569.0" yOffset="450.0" identifier="mark_ar3Dot.above"/>
    <component base="ar1Dot.above" xOffset="569.0" yOffset="450.0" identifier="mark_ar1Dot.above"/>
    <component base="uni0651" xOffset="569.0" yOffset="488.0" identifier="mark_uni0651"/>
    <component base="uni064E" xOffset="569.0" yOffset="470.0" identifier="mark_uni064E"/>
    <component base="uni064B" xOffset="569.0" yOffset="488.0" identifier="mark_uni064B"/>
    <component base="ar3IDot.below" xOffset="379.0" yOffset="-299.0" identifier="mark_ar3IDot.below"/>
    <component base="ar2Dot.below" xOffset="379.0" yOffset="-299.0" identifier="mark_ar2Dot.below"/>
    <component base="uni0650" xOffset="379.0" yOffset="-319.0" identifier="mark_uni0650"/>
    <component base="uni0656" xOffset="379.0" yOffset="-299.0" identifier="mark_uni0656"/>
    <component base="uni064D" xOffset="379.0" yOffset="-328.0" identifier="mark_uni064D"/>
    <component base="ar1Dot.below" xOffset="379.0" yOffset="-299.0" identifier="mark_ar1Dot.below"/>
    <component base="ar3Dot.below" xOffset="379.0" yOffset="-299.0" identifier="mark_ar3Dot.below"/>
    <component base="uni0670" xOffset="569.0" yOffset="450.0" identifier="mark_uni0670"/>
    <component base="uni064C" xOffset="568.0" yOffset="482.0" identifier="mark_uni064C"/>
    <component base="uni064F" xOffset="563.0" yOffset="482.0" identifier="mark_uni064F"/>
    <component base="uni0652" xOffset="569.0" yOffset="487.0" identifier="mark_uni0652"/>
    <component base="ar2Dot.above" xOffset="569.0" yOffset="450.0" identifier="mark_ar2Dot.above"/>
    <component base="ar3IDot.above" xOffset="569.0" yOffset="450.0" identifier="mark_ar3IDot.above"/>
  </outline>
</glyph>
<glyph name="arGaf.above" format="2">
  <anchor x="0" y="0" name="_arGaf.above"/>
  <outline>
    <contour>
      <point x="-160.0" y="-35.0" type="curve"/>
      <point x="-176.0" y="-8.0" type="line"/>
      <point x="-72.0" y="56.0"/>
      <point x="134.0" y="102.0"/>
      <point x="176.0" y="103.0" type="curve"/>
      <point x="176.0" y="71.0" type="line"/>
      <point x="144.0" y="70.0"/>
      <point x="-66.0" y="23.0"/>
    </contour>
  </outline>
</glyph>
<glyph name="arGaf.isol" format="2">
  <advance width="542"/>
  <outline>
    <contour>
      <point x="82.0" y="32.0" type="line"/>
      <point x="106.0" y="0.0" type="line"/>
      <point x="64.0" y="0.0" type="line"/>
      <point x="40.0" y="32.0" type="line"/>
    </contour>
    <component base="arKaf.medi" xOffset="64.0"/>
  </outline>
</glyph>
<glyph name="arHah.init" format="2">
  <advance width="566"/>
  <outline>
    <contour>
      <point x="0.0" y="0.0" type="line"/>
      <point x="0.0" y="32.0" type="line"/>
      <point x="483.0" y="32.0" type="line" smooth="yes"/>
      <point x="486.0" y="32.0"/>
      <point x="489.0" y="34.0"/>
      <point x="492.0" y="40.0" type="curve"/>
      <point x="451.0" y="47.0"/>
      <point x="417.0" y="73.0"/>
      <point x="388.0" y="99.0" type="curve" smooth="yes"/>
      <point x="344.0" y="138.0"/>
      <point x="299.0" y="192.0"/>
      <point x="249.0" y="227.0" type="curve" smooth="yes"/>
      <point x="197.0" y="264.0"/>
      <point x="144.0" y="276.0"/>
      <point x="103.0" y="286.0" type="curve"/>
      <point x="111.0" y="318.0" type="line"/>
      <point x="152.0" y="308.0"/>
      <point x="209.0" y="294.0"/>
      <point x="267.0" y="253.0" type="curve" smooth="yes"/>
      <point x="321.0" y="214.0"/>
      <point x="368.0" y="160.0"/>
      <point x="410.0" y="123.0" type="curve" smooth="yes"/>
      <point x="449.0" y="88.0"/>
      <point x="476.0" y="70.0"/>
      <point x="525.0" y="70.0" type="curve"/>
      <point x="526.0" y="55.0" type="line" smooth="yes"/>
      <point x="528.0" y="31.0"/>
      <point x="514.0" y="0.0"/>
      <point x="483.0" y="0.0" type="curve" smooth="yes"/>
    </contour>
    <component base="ar3IDot.below" xOffset="233.0" yOffset="-150.0" identifier="mark_ar3IDot.below"/>
    <component base="ar2Dot.below" xOffset="233.0" yOffset="-150.0" identifier="mark_ar2Dot.below"/>
    <component base="uni0650" xOffset="233.0" yOffset="-170.0" identifier="mark_uni0650"/>
    <component base="uni0656" xOffset="233.0" yOffset="-150.0" identifier="mark_uni0656"/>
    <component base="ar3IDot.above" xOffset="144.0" yOffset="386.0" identifier="mark_ar3IDot.above"/>
    <component base="ar2Dot.above" xOffset="144.0" yOffset="386.0" identifier="mark_ar2Dot.above"/>
    <component base="uni0652" xOffset="144.0" yOffset="423.0" identifier="mark_uni0652"/>
    <component base="uni064F" xOffset="138.0" yOffset="418.0" identifier="mark_uni064F"/>
    <component base="uni064C" xOffset="143.0" yOffset="418.0" identifier="mark_uni064C"/>
    <component base="uni0670" xOffset="144.0" yOffset="386.0" identifier="mark_uni0670"/>
    <component base="uni064B" xOffset="144.0" yOffset="424.0" identifier="mark_uni064B"/>
    <component base="uni064E" xOffset="144.0" yOffset="406.0" identifier="mark_uni064E"/>
    <component base="uni0651" xOffset="144.0" yOffset="424.0" identifier="mark_uni0651"/>
    <component base="ar1Dot.above" xOffset="144.0" yOffset="386.0" identifier="mark_ar1Dot.above"/>
    <component base="ar3Dot.above" xOffset="144.0" yOffset="386.0" identifier="mark_ar3Dot.above"/>
    <component base="arTah.above" xOffset="144.0" yOffset="386.0" identifier="mark_arTah.above"/>
    <component base="uni064D" xOffset="233.0" yOffset="-179.0" identifier="mark_uni064D"/>
    <component base="ar1Dot.below" xOffset="233.0" yOffset="-150.0" identifier="mark_ar1Dot.below"/>
    <component base="ar3Dot.below" xOffset="233.0" yOffset="-150.0" identifier="mark_ar3Dot.below"/>
  </outline>
</glyph>
<glyph name="arHah.isol" format="2">
  <advance width="476"/>
  <outline>
    <contour>
      <point x="381.0" y="-259.0" type="line"/>
      <point x="381.0" y="-291.0" type="line"/>
      <point x="140.0" y="-291.0" type="line" smooth="yes"/>
      <point x="83.0" y="-292.0"/>
      <point x="40.0" y="-250.0"/>
      <point x="40.0" y="-195.0" type="curve" smooth="yes"/>
      <point x="40.0" y="-80.0" type="line" smooth="yes"/>
      <point x="40.0" y="-26.0"/>
      <point x="87.0" y="32.0"/>
      <point x="148.0" y="32.0" type="curve" smooth="yes"/>
      <point x="401.0" y="32.0" type="line"/>
      <point x="359.0" y="41.0"/>
      <point x="328.0" y="71.0"/>
      <point x="301.0" y="100.0" type="curve" smooth="yes"/>
      <point x="260.0" y="145.0"/>
      <point x="219.0" y="218.0"/>
      <point x="113.0" y="258.0" type="curve"/>
      <point x="125.0" y="288.0" type="line"/>
      <point x="241.0" y="244.0"/>
      <point x="288.0" y="163.0"/>
      <point x="325.0" y="122.0" type="curve" smooth="yes"/>
      <point x="362.0" y="82.0"/>
      <point x="387.0" y="62.0"/>
      <point x="436.0" y="62.0" type="curve"/>
      <point x="436.0" y="46.0" type="line" smooth="yes"/>
      <point x="436.0" y="33.0"/>
      <point x="424.0" y="0.0"/>
      <point x="393.0" y="0.0" type="curve" smooth="yes"/>
      <point x="148.0" y="0.0" type="line" smooth="yes"/>
      <point x="107.0" y="0.0"/>
      <point x="72.0" y="-42.0"/>
      <point x="72.0" y="-80.0" type="curve" smooth="yes"/>
      <point x="72.0" y="-195.0" type="line" smooth="yes"/>
      <point x="72.0" y="-232.0"/>
      <point x="99.0" y="-260.0"/>
      <point x="140.0" y="-259.0" type="curve" smooth="yes"/>
    </contour>
    <component base="ar3IDot.below" xOffset="248.0" yOffset="-131.0" identifier="mark_ar3IDot.below"/>
    <component base="ar2Dot.below" xOffset="248.0" yOffset="-131.0" identifier="mark_ar2Dot.below"/>
    <component base="uni0650" xOffset="248.0" yOffset="-151.0" identifier="mark_uni0650"/>
    <component base="uni0656" xOffset="248.0" yOffset="-131.0" identifier="mark_uni0656"/>
    <component base="ar3IDot.above" xOffset="158.0" yOffset="356.0" identifier="mark_ar3IDot.above"/>
    <component base="ar2Dot.above" xOffset="158.0" yOffset="356.0" identifier="mark_ar2Dot.above"/>
    <component base="uni0652" xOffset="158.0" yOffset="393.0" identifier="mark_uni0652"/>
    <component base="uni064F" xOffset="152.0" yOffset="388.0" identifier="mark_uni064F"/>
    <component base="uni064C" xOffset="157.0" yOffset="388.0" identifier="mark_uni064C"/>
    <component base="uni0670" xOffset="158.0" yOffset="356.0" identifier="mark_uni0670"/>
    <component base="uni064B" xOffset="158.0" yOffset="394.0" identifier="mark_uni064B"/>
    <component base="uni064E" xOffset="158.0" yOffset="376.0" identifier="mark_uni064E"/>
    <component base="uni0651" xOffset="158.0" yOffset="394.0" identifier="mark_uni0651"/>
    <component base="ar1Dot.above" xOffset="158.0" yOffset="356.0" identifier="mark_ar1Dot.above"/>
    <component base="ar3Dot.above" xOffset="158.0" yOffset="356.0" identifier="mark_ar3Dot.above"/>
    <component base="arTah.above" xOffset="158.0" yOffset="356.0" identifier="mark_arTah.above"/>
    <component base="uni064D" xOffset="248.0" yOffset="-160.0" identifier="mark_uni064D"/>
    <component base="ar1Dot.below" xOffset="248.0" yOffset="-131.0" identifier="mark_ar1Dot.below"/>
    <component base="ar3Dot.below" xOffset="248.0" yOffset="-131.0" identifier="mark_ar3Dot.below"/>
  </outline>
</glyph>
<glyph name="arHah.isol2" format="2">
  <advance width="476"/>
  <outline>
    <contour>
      <point x="40.0" y="-259.0" type="curve" smooth="yes"/>
      <point x="40.0" y="-80.0" type="line" smooth="yes"/>
      <point x="40.0" y="-26.0"/>
      <point x="87.0" y="32.0"/>
      <point x="148.0" y="32.0" type="curve" smooth="yes"/>
      <point x="401.0" y="32.0" type="line"/>
      <point x="359.0" y="41.0"/>
      <point x="328.0" y="71.0"/>
      <point x="301.0" y="100.0" type="curve" smooth="yes"/>
      <point x="260.0" y="145.0"/>
      <point x="219.0" y="218.0"/>
      <point x="113.0" y="258.0" type="curve"/>
      <point x="125.0" y="288.0" type="line"/>
      <point x="241.0" y="244.0"/>
      <point x="288.0" y="163.0"/>
      <point x="325.0" y="122.0" type="curve" smooth="yes"/>
      <point x="362.0" y="82.0"/>
      <point x="387.0" y="62.0"/>
      <point x="436.0" y="62.0" type="curve"/>
      <point x="436.0" y="46.0" type="line" smooth="yes"/>
      <point x="436.0" y="33.0"/>
      <point x="424.0" y="0.0"/>
      <point x="393.0" y="0.0" type="curve" smooth="yes"/>
      <point x="148.0" y="0.0" type="line" smooth="yes"/>
      <point x="107.0" y="0.0"/>
      <point x="72.0" y="-42.0"/>
      <point x="72.0" y="-80.0" type="curve" smooth="yes"/>
      <point x="72.01341759447814" y="-291.0447911234181" type="line"/>
      <point x="52.15247245687783" y="-290.8312709897849"/>
      <point x="40.0" y="-274.4545575766409"/>
    </contour>
  </outline>
</glyph>
<glyph name="arHeh.fina2" format="2">
  <advance width="218"/>
  <anchor x="139.0" y="-150.0" name="dotBelow"/>
  <anchor x="139.0" y="-170.0" name="markBelow"/>
  <anchor x="109.0" y="150.0" name="dotAbove"/>
  <anchor x="109.0" y="150.0" name="uni0654"/>
  <anchor x="109.0" y="150.0" name="arSad.above"/>
  <anchor x="109.0" y="187.0" name="markAbove"/>
  <anchor x="109.0" y="150.0" name="arKaf.above"/>
  <anchor x="109.0" y="150.0" name="uni0653"/>
  <outline>
    <contour>
      <point x="72.0" y="-88.0" type="line"/>
      <point x="40.0" y="-88.0" type="line"/>
      <point x="40.0" y="-35.0" type="line" smooth="yes"/>
      <point x="40.0" y="3.0"/>
      <point x="70.0" y="32.0"/>
      <point x="109.0" y="32.0" type="curve" smooth="yes"/>
      <point x="218.0" y="32.0" type="line"/>
      <point x="218.0" y="0.0" type="line"/>
      <point x="109.0" y="0.0" type="line" smooth="yes"/>
      <point x="86.0" y="0.0"/>
      <point x="72.0" y="-15.0"/>
      <point x="72.0" y="-35.0" type="curve" smooth="yes"/>
    </contour>
  </outline>
</glyph>
<glyph name="arHeh.init" format="2">
  <advance width="672"/>
  <outline>
    <contour>
      <point x="249.0" y="395.0" type="curve"/>
      <point x="249.0" y="427.0" type="line"/>
      <point x="517.0" y="423.0"/>
      <point x="636.0" y="228.0"/>
      <point x="632.0" y="68.0" type="curve" smooth="yes"/>
      <point x="632.0" y="30.0"/>
      <point x="601.0" y="0.0"/>
      <point x="564.0" y="0.0" type="curve" smooth="yes"/>
      <point x="0.0" y="0.0" type="line"/>
      <point x="0.0" y="32.0" type="line"/>
      <point x="564.0" y="32.0" type="line" smooth="yes"/>
      <point x="585.0" y="32.0"/>
      <point x="600.0" y="46.0"/>
      <point x="600.0" y="68.0" type="curve" smooth="yes"/>
      <point x="604.0" y="212.0"/>
      <point x="499.0" y="391.0"/>
    </contour>
    <contour>
      <point x="188.0" y="26.0" type="line"/>
      <point x="156.0" y="26.0" type="line"/>
      <point x="156.0" y="163.0" type="line" smooth="yes"/>
      <point x="156.0" y="203.0"/>
      <point x="173.0" y="234.0"/>
      <point x="200.0" y="252.0" type="curve" smooth="yes"/>
      <point x="257.0" y="290.0"/>
      <point x="347.0" y="267.0"/>
      <point x="403.0" y="182.0" type="curve" smooth="yes"/>
      <point x="421.0" y="153.0"/>
      <point x="430.0" y="126.0"/>
      <point x="431.0" y="102.0" type="curve" smooth="yes"/>
      <point x="432.0" y="37.0"/>
      <point x="376.0" y="1.0"/>
      <point x="322.0" y="0.0" type="curve"/>
      <point x="322.0" y="32.0" type="line"/>
      <point x="364.0" y="33.0"/>
      <point x="400.0" y="59.0"/>
      <point x="399.0" y="101.0" type="curve" smooth="yes"/>
      <point x="399.0" y="118.0"/>
      <point x="393.0" y="139.0"/>
      <point x="377.0" y="164.0" type="curve" smooth="yes"/>
      <point x="328.0" y="239.0"/>
      <point x="255.0" y="251.0"/>
      <point x="218.0" y="226.0" type="curve" smooth="yes"/>
      <point x="200.0" y="214.0"/>
      <point x="188.0" y="194.0"/>
      <point x="188.0" y="163.0" type="curve" smooth="yes"/>
    </contour>
    <component base="arTah.above" xOffset="336.0" yOffset="627.0" identifier="mark_arTah.above"/>
    <component base="ar3Dot.above" xOffset="336.0" yOffset="627.0" identifier="mark_ar3Dot.above"/>
    <component base="ar1Dot.above" xOffset="336.0" yOffset="627.0" identifier="mark_ar1Dot.above"/>
    <component base="uni0651" xOffset="336.0" yOffset="665.0" identifier="mark_uni0651"/>
    <component base="uni064E" xOffset="336.0" yOffset="647.0" identifier="mark_uni064E"/>
    <component base="uni064B" xOffset="336.0" yOffset="665.0" identifier="mark_uni064B"/>
    <component base="ar3IDot.below" xOffset="336.0" yOffset="-150.0" identifier="mark_ar3IDot.below"/>
    <component base="ar2Dot.below" xOffset="336.0" yOffset="-150.0" identifier="mark_ar2Dot.below"/>
    <component base="uni0650" xOffset="336.0" yOffset="-170.0" identifier="mark_uni0650"/>
    <component base="uni0656" xOffset="336.0" yOffset="-150.0" identifier="mark_uni0656"/>
    <component base="uni064D" xOffset="336.0" yOffset="-179.0" identifier="mark_uni064D"/>
    <component base="ar1Dot.below" xOffset="336.0" yOffset="-150.0" identifier="mark_ar1Dot.below"/>
    <component base="ar3Dot.below" xOffset="336.0" yOffset="-150.0" identifier="mark_ar3Dot.below"/>
    <component base="uni0670" xOffset="336.0" yOffset="627.0" identifier="mark_uni0670"/>
    <component base="uni064C" xOffset="335.0" yOffset="659.0" identifier="mark_uni064C"/>
    <component base="uni064F" xOffset="330.0" yOffset="659.0" identifier="mark_uni064F"/>
    <component base="uni0652" xOffset="336.0" yOffset="664.0" identifier="mark_uni0652"/>
    <component base="ar2Dot.above" xOffset="336.0" yOffset="627.0" identifier="mark_ar2Dot.above"/>
    <component base="ar3IDot.above" xOffset="336.0" yOffset="627.0" identifier="mark_ar3IDot.above"/>
  </outline>
</glyph>
<glyph name="arHeh.init2" format="2">
  <advance width="298"/>
  <outline>
    <contour>
      <point x="226.0" y="190.0" type="line"/>
      <point x="258.0" y="190.0" type="line"/>
      <point x="258.0" y="67.0" type="line" smooth="yes"/>
      <point x="258.0" y="29.0"/>
      <point x="228.0" y="0.0"/>
      <point x="189.0" y="0.0" type="curve" smooth="yes"/>
      <point x="0.0" y="0.0" type="line"/>
      <point x="0.0" y="32.0" type="line"/>
      <point x="189.0" y="32.0" type="line" smooth="yes"/>
      <point x="212.0" y="32.0"/>
      <point x="226.0" y="47.0"/>
      <point x="226.0" y="67.0" type="curve" smooth="yes"/>
    </contour>
    <contour>
      <point x="254.0" y="-154.0" type="curve"/>
      <point x="279.0" y="-174.0" type="line"/>
      <point x="252.0" y="-208.0"/>
      <point x="201.0" y="-215.0"/>
      <point x="174.0" y="-192.0" type="curve" smooth="yes"/>
      <point x="149.0" y="-171.0"/>
      <point x="143.0" y="-137.0"/>
      <point x="149.0" y="-103.0" type="curve" smooth="yes"/>
      <point x="159.0" y="-50.0"/>
      <point x="181.0" y="-6.0"/>
      <point x="215.0" y="42.0" type="curve"/>
      <point x="241.0" y="24.0" type="line"/>
      <point x="209.0" y="-22.0"/>
      <point x="199.7506419586598" y="-41.082455385230105"/>
      <point x="185.64466287622508" y="-86.37007243936273" type="curve" smooth="yes"/>
      <point x="162.47921660092737" y="-160.74334732321296"/>
      <point x="212.34208433961203" y="-194.2050855849143"/>
    </contour>
    <component base="arTah.above" xOffset="99.0" yOffset="490.0" identifier="mark_arTah.above"/>
    <component base="ar3Dot.above" xOffset="99.0" yOffset="490.0" identifier="mark_ar3Dot.above"/>
    <component base="ar1Dot.above" xOffset="99.0" yOffset="490.0" identifier="mark_ar1Dot.above"/>
    <component base="uni0651" xOffset="99.0" yOffset="528.0" identifier="mark_uni0651"/>
    <component base="uni064E" xOffset="99.0" yOffset="510.0" identifier="mark_uni064E"/>
    <component base="uni064B" xOffset="99.0" yOffset="528.0" identifier="mark_uni064B"/>
    <component base="uni0670" xOffset="99.0" yOffset="490.0" identifier="mark_uni0670"/>
    <component base="uni064C" xOffset="98.0" yOffset="522.0" identifier="mark_uni064C"/>
    <component base="uni064F" xOffset="93.0" yOffset="522.0" identifier="mark_uni064F"/>
    <component base="uni0652" xOffset="99.0" yOffset="527.0" identifier="mark_uni0652"/>
    <component base="ar2Dot.above" xOffset="99.0" yOffset="490.0" identifier="mark_ar2Dot.above"/>
    <component base="ar3IDot.above" xOffset="99.0" yOffset="490.0" identifier="mark_ar3IDot.above"/>
  </outline>
</glyph>
<glyph name="arHeh.isol" format="2">
  <advance width="360"/>
  <outline>
    <contour>
      <point x="265.0" y="352.0" type="line"/>
      <point x="219.0" y="241.0"/>
      <point x="158.0" y="202.0"/>
      <point x="90.0" y="138.0" type="curve" smooth="yes"/>
      <point x="62.0" y="107.0"/>
      <point x="69.0" y="71.0"/>
      <point x="93.0" y="50.0" type="curve" smooth="yes"/>
      <point x="105.0" y="39.0"/>
      <point x="122.0" y="32.0"/>
      <point x="142.0" y="32.0" type="curve" smooth="yes"/>
      <point x="252.0" y="32.0" type="line" smooth="yes"/>
      <point x="271.0" y="32.0"/>
      <point x="288.0" y="49.0"/>
      <point x="288.0" y="68.0" type="curve" smooth="yes"/>
      <point x="288.0" y="327.0" type="line"/>
      <point x="320.0" y="327.0" type="line"/>
      <point x="320.0" y="68.0" type="line" smooth="yes"/>
      <point x="320.0" y="31.0"/>
      <point x="289.0" y="0.0"/>
      <point x="252.0" y="0.0" type="curve" smooth="yes"/>
      <point x="142.0" y="0.0" type="line" smooth="yes"/>
      <point x="114.0" y="0.0"/>
      <point x="89.0" y="11.0"/>
      <point x="71.0" y="27.0" type="curve" smooth="yes"/>
      <point x="37.0" y="58.0"/>
      <point x="24.0" y="120.0"/>
      <point x="68.0" y="161.0" type="curve" smooth="yes"/>
      <point x="139.0" y="227.0"/>
      <point x="192.0" y="260.0"/>
      <point x="235.0" y="364.0" type="curve"/>
    </contour>
    <component base="arTah.above" xOffset="220.0" yOffset="504.0" identifier="mark_arTah.above"/>
    <component base="ar3Dot.above" xOffset="220.0" yOffset="504.0" identifier="mark_ar3Dot.above"/>
    <component base="ar1Dot.above" xOffset="220.0" yOffset="504.0" identifier="mark_ar1Dot.above"/>
    <component base="uni0651" xOffset="220.0" yOffset="542.0" identifier="mark_uni0651"/>
    <component base="uni064E" xOffset="220.0" yOffset="524.0" identifier="mark_uni064E"/>
    <component base="uni064B" xOffset="220.0" yOffset="542.0" identifier="mark_uni064B"/>
    <component base="uni0654" xOffset="220.0" yOffset="449.0" identifier="mark_uni0654"/>
    <component base="arSad.above" xOffset="220.0" yOffset="449.0" identifier="mark_arSad.above"/>
    <component base="ar3IDot.below" xOffset="204.0" yOffset="-110.0" identifier="mark_ar3IDot.below"/>
    <component base="ar2Dot.below" xOffset="204.0" yOffset="-110.0" identifier="mark_ar2Dot.below"/>
    <component base="uni0650" xOffset="204.0" yOffset="-130.0" identifier="mark_uni0650"/>
    <component base="uni0656" xOffset="204.0" yOffset="-110.0" identifier="mark_uni0656"/>
    <component base="uni064D" xOffset="204.0" yOffset="-139.0" identifier="mark_uni064D"/>
    <component base="ar1Dot.below" xOffset="204.0" yOffset="-110.0" identifier="mark_ar1Dot.below"/>
    <component base="ar3Dot.below" xOffset="204.0" yOffset="-110.0" identifier="mark_ar3Dot.below"/>
    <component base="arKaf.above" xOffset="220.0" yOffset="449.0" identifier="mark_arKaf.above"/>
    <component base="uni0653" xOffset="220.0" yOffset="449.0" identifier="mark_uni0653"/>
    <component base="uni0670" xOffset="220.0" yOffset="504.0" identifier="mark_uni0670"/>
    <component base="uni064C" xOffset="219.0" yOffset="536.0" identifier="mark_uni064C"/>
    <component base="uni064F" xOffset="214.0" yOffset="536.0" identifier="mark_uni064F"/>
    <component base="uni0652" xOffset="220.0" yOffset="541.0" identifier="mark_uni0652"/>
    <component base="ar2Dot.above" xOffset="220.0" yOffset="504.0" identifier="mark_ar2Dot.above"/>
    <component base="ar3IDot.above" xOffset="220.0" yOffset="504.0" identifier="mark_ar3IDot.above"/>
  </outline>
</glyph>
<glyph name="arHeh.medi2" format="2">
  <advance width="526"/>
  <outline>
    <contour>
      <point x="319.0" y="-296.0" type="curve"/>
      <point x="287.0" y="-302.0" type="line"/>
      <point x="268.0" y="-202.0"/>
      <point x="233.0" y="-201.0"/>
      <point x="193.0" y="-137.0" type="curve" smooth="yes"/>
      <point x="149.0" y="-66.0"/>
      <point x="172.0" y="0.0"/>
      <point x="140.0" y="0.0" type="curve" smooth="yes"/>
      <point x="0.0" y="0.0" type="line"/>
      <point x="0.0" y="32.0" type="line"/>
      <point x="140.0" y="32.0" type="line" smooth="yes"/>
      <point x="208.0" y="32.0"/>
      <point x="197.0" y="-82.0"/>
      <point x="221.0" y="-121.0" type="curve" smooth="yes"/>
      <point x="253.0" y="-173.0"/>
      <point x="298.0" y="-188.0"/>
    </contour>
    <contour>
      <point x="350.0" y="-286.0" type="line"/>
      <point x="318.0" y="-286.0" type="line"/>
      <point x="318.0" y="-36.0" type="line" smooth="yes"/>
      <point x="318.0" y="1.0"/>
      <point x="349.0" y="32.0"/>
      <point x="386.0" y="32.0" type="curve" smooth="yes"/>
      <point x="526.0" y="32.0" type="line"/>
      <point x="526.0" y="0.0" type="line"/>
      <point x="386.0" y="0.0" type="line" smooth="yes"/>
      <point x="367.0" y="0.0"/>
      <point x="350.0" y="-17.0"/>
      <point x="350.0" y="-36.0" type="curve" smooth="yes"/>
    </contour>
    <component base="ar3IDot.below" xOffset="321.0" yOffset="-402.0" identifier="mark_ar3IDot.below"/>
    <component base="ar2Dot.below" xOffset="321.0" yOffset="-402.0" identifier="mark_ar2Dot.below"/>
    <component base="uni0650" xOffset="321.0" yOffset="-422.0" identifier="mark_uni0650"/>
    <component base="uni0656" xOffset="321.0" yOffset="-402.0" identifier="mark_uni0656"/>
    <component base="ar3IDot.above" xOffset="263.0" yOffset="232.0" identifier="mark_ar3IDot.above"/>
    <component base="ar2Dot.above" xOffset="263.0" yOffset="232.0" identifier="mark_ar2Dot.above"/>
    <component base="uni0652" xOffset="263.0" yOffset="269.0" identifier="mark_uni0652"/>
    <component base="uni064F" xOffset="257.0" yOffset="264.0" identifier="mark_uni064F"/>
    <component base="uni064C" xOffset="262.0" yOffset="264.0" identifier="mark_uni064C"/>
    <component base="uni0670" xOffset="263.0" yOffset="232.0" identifier="mark_uni0670"/>
    <component base="uni064B" xOffset="263.0" yOffset="270.0" identifier="mark_uni064B"/>
    <component base="uni064E" xOffset="263.0" yOffset="252.0" identifier="mark_uni064E"/>
    <component base="uni0651" xOffset="263.0" yOffset="270.0" identifier="mark_uni0651"/>
    <component base="ar1Dot.above" xOffset="263.0" yOffset="232.0" identifier="mark_ar1Dot.above"/>
    <component base="ar3Dot.above" xOffset="263.0" yOffset="232.0" identifier="mark_ar3Dot.above"/>
    <component base="arTah.above" xOffset="263.0" yOffset="232.0" identifier="mark_arTah.above"/>
    <component base="uni064D" xOffset="321.0" yOffset="-431.0" identifier="mark_uni064D"/>
    <component base="ar1Dot.below" xOffset="321.0" yOffset="-402.0" identifier="mark_ar1Dot.below"/>
    <component base="ar3Dot.below" xOffset="321.0" yOffset="-402.0" identifier="mark_ar3Dot.below"/>
  </outline>
</glyph>
<glyph name="arKaf.above" format="2">
  <outline>
    <contour>
      <point x="96.0" y="143.0" type="line"/>
      <point x="96.0" y="111.0" type="line"/>
      <point x="3.0" y="111.0" type="line"/>
      <point x="37.0" y="40.0" type="line" smooth="yes"/>
      <point x="40.0" y="34.0"/>
      <point x="46.0" y="21.0"/>
      <point x="38.0" y="9.0" type="curve" smooth="yes"/>
      <point x="33.0" y="1.0"/>
      <point x="21.0" y="0.0"/>
      <point x="15.0" y="0.0" type="curve" smooth="yes"/>
      <point x="-96.0" y="0.0" type="line"/>
      <point x="-96.0" y="32.0" type="line"/>
      <point x="5.0" y="32.0" type="line"/>
      <point x="-29.0" y="102.0" type="line"/>
      <point x="-29.0" y="103.0"/>
      <point x="-39.0" y="122.0"/>
      <point x="-28.0" y="134.0" type="curve" smooth="yes"/>
      <point x="-23.0" y="140.0"/>
      <point x="-13.0" y="143.0"/>
      <point x="-3.0" y="143.0" type="curve" smooth="yes"/>
    </contour>
  </outline>
</glyph>
<glyph name="arKaf.init" format="2">
  <advance width="478"/>
  <outline>
    <contour>
      <point x="0.0" y="0.0" type="line"/>
      <point x="0.0" y="32.0" type="line"/>
      <point x="342.0" y="32.0" type="line" smooth="yes"/>
      <point x="372.0" y="32.0"/>
      <point x="385.0" y="68.0"/>
      <point x="366.0" y="87.0" type="curve" smooth="yes"/>
      <point x="86.0" y="373.0" type="line" smooth="yes"/>
      <point x="57.0" y="402.0"/>
      <point x="42.0" y="463.0"/>
      <point x="86.0" y="488.0" type="curve" smooth="yes"/>
      <point x="189.0" y="552.0"/>
      <point x="396.0" y="598.0"/>
      <point x="438.0" y="599.0" type="curve"/>
      <point x="438.0" y="567.0" type="line"/>
      <point x="406.0" y="566.0"/>
      <point x="197.0" y="518.0"/>
      <point x="102.0" y="460.0" type="curve" smooth="yes"/>
      <point x="81.0" y="448.0"/>
      <point x="90.0" y="413.0"/>
      <point x="108.0" y="395.0" type="curve" smooth="yes"/>
      <point x="388.0" y="109.0" type="line" smooth="yes"/>
      <point x="424.0" y="72.0"/>
      <point x="402.0" y="0.0"/>
      <point x="342.0" y="0.0" type="curve" smooth="yes"/>
    </contour>
    <component base="arGaf.above" xOffset="257.0" yOffset="597.0" identifier="mark_arGaf.above"/>
    <component base="ar3Dot.below" xOffset="129.0" yOffset="-150.0" identifier="mark_ar3Dot.below"/>
    <component base="ar1Dot.below" xOffset="129.0" yOffset="-150.0" identifier="mark_ar1Dot.below"/>
    <component base="uni064D" xOffset="129.0" yOffset="-179.0" identifier="mark_uni064D"/>
    <component base="arTah.above" xOffset="69.0" yOffset="619.0" identifier="mark_arTah.above"/>
    <component base="ar3Dot.above" xOffset="69.0" yOffset="619.0" identifier="mark_ar3Dot.above"/>
    <component base="ar1Dot.above" xOffset="69.0" yOffset="619.0" identifier="mark_ar1Dot.above"/>
    <component base="uni0651" xOffset="209.0" yOffset="657.0" identifier="mark_uni0651"/>
    <component base="uni064E" xOffset="209.0" yOffset="639.0" identifier="mark_uni064E"/>
    <component base="uni064B" xOffset="209.0" yOffset="657.0" identifier="mark_uni064B"/>
    <component base="uni0670" xOffset="209.0" yOffset="619.0" identifier="mark_uni0670"/>
    <component base="uni064C" xOffset="208.0" yOffset="651.0" identifier="mark_uni064C"/>
    <component base="uni064F" xOffset="203.0" yOffset="651.0" identifier="mark_uni064F"/>
    <component base="uni0652" xOffset="209.0" yOffset="656.0" identifier="mark_uni0652"/>
    <component base="ar2Dot.above" xOffset="69.0" yOffset="619.0" identifier="mark_ar2Dot.above"/>
    <component base="ar3IDot.above" xOffset="69.0" yOffset="619.0" identifier="mark_ar3IDot.above"/>
    <component base="uni0656" xOffset="129.0" yOffset="-150.0" identifier="mark_uni0656"/>
    <component base="uni0650" xOffset="129.0" yOffset="-170.0" identifier="mark_uni0650"/>
    <component base="ar2Dot.below" xOffset="129.0" yOffset="-150.0" identifier="mark_ar2Dot.below"/>
    <component base="ar3IDot.below" xOffset="129.0" yOffset="-150.0" identifier="mark_ar3IDot.below"/>
  </outline>
</glyph>
<glyph name="arKaf.isol" format="2">
  <advance width="496"/>
  <outline>
    <contour>
      <point x="82.0" y="32.0" type="line"/>
      <point x="106.0" y="0.0" type="line"/>
      <point x="64.0" y="0.0" type="line"/>
      <point x="40.0" y="32.0" type="line"/>
    </contour>
    <contour>
      <point x="424.0" y="624.0" type="line"/>
      <point x="456.0" y="624.0" type="line"/>
      <point x="456.0" y="70.0" type="line" smooth="yes"/>
      <point x="456.0" y="35.0"/>
      <point x="430.0" y="0.0"/>
      <point x="386.0" y="0.0" type="curve" smooth="yes"/>
      <point x="64.0" y="0.0" type="line"/>
      <point x="64.0" y="32.0" type="line"/>
      <point x="386.0" y="32.0" type="line" smooth="yes"/>
      <point x="410.0" y="32.0"/>
      <point x="424.0" y="51.0"/>
      <point x="424.0" y="70.0" type="curve" smooth="yes"/>
    </contour>
    <component base="arTah.above" xOffset="440.0" yOffset="673.0" identifier="mark_arTah.above"/>
    <component base="ar3Dot.above" xOffset="440.0" yOffset="673.0" identifier="mark_ar3Dot.above"/>
    <component base="ar1Dot.above" xOffset="440.0" yOffset="673.0" identifier="mark_ar1Dot.above"/>
    <component base="uni0651" xOffset="440.0" yOffset="711.0" identifier="mark_uni0651"/>
    <component base="uni064E" xOffset="440.0" yOffset="693.0" identifier="mark_uni064E"/>
    <component base="uni064B" xOffset="440.0" yOffset="711.0" identifier="mark_uni064B"/>
    <component base="ar3IDot.below" xOffset="239.0" yOffset="-110.0" identifier="mark_ar3IDot.below"/>
    <component base="ar2Dot.below" xOffset="239.0" yOffset="-110.0" identifier="mark_ar2Dot.below"/>
    <component base="uni0650" xOffset="239.0" yOffset="-130.0" identifier="mark_uni0650"/>
    <component base="uni0656" xOffset="239.0" yOffset="-110.0" identifier="mark_uni0656"/>
    <component base="uni0653" xOffset="230.0" yOffset="270.0" identifier="mark_uni0653"/>
    <component base="arKaf.above" xOffset="230.0" yOffset="270.0" identifier="mark_arKaf.above"/>
    <component base="arSad.above" xOffset="230.0" yOffset="270.0" identifier="mark_arSad.above"/>
    <component base="uni0654" xOffset="230.0" yOffset="270.0" identifier="mark_uni0654"/>
    <component base="uni064D" xOffset="239.0" yOffset="-139.0" identifier="mark_uni064D"/>
    <component base="ar1Dot.below" xOffset="239.0" yOffset="-110.0" identifier="mark_ar1Dot.below"/>
    <component base="ar3Dot.below" xOffset="239.0" yOffset="-110.0" identifier="mark_ar3Dot.below"/>
    <component base="uni0670" xOffset="440.0" yOffset="673.0" identifier="mark_uni0670"/>
    <component base="uni064C" xOffset="439.0" yOffset="705.0" identifier="mark_uni064C"/>
    <component base="uni064F" xOffset="434.0" yOffset="705.0" identifier="mark_uni064F"/>
    <component base="uni0652" xOffset="440.0" yOffset="710.0" identifier="mark_uni0652"/>
    <component base="ar2Dot.above" xOffset="440.0" yOffset="673.0" identifier="mark_ar2Dot.above"/>
    <component base="ar3IDot.above" xOffset="440.0" yOffset="673.0" identifier="mark_ar3IDot.above"/>
  </outline>
</glyph>
<glyph name="arLam.init.1" format="2">
  <advance width="362"/>
  <outline>
    <contour>
      <point x="290.0" y="624.0" type="line"/>
      <point x="322.0" y="624.0" type="line"/>
      <point x="322.0" y="70.0" type="line" smooth="yes"/>
      <point x="322.0" y="30.0"/>
      <point x="292.0" y="0.0"/>
      <point x="255.0" y="0.0" type="curve" smooth="yes"/>
      <point x="40.0" y="0.0" type="line"/>
      <point x="40.0" y="32.0" type="line"/>
      <point x="255.0" y="32.0" type="line" smooth="yes"/>
      <point x="274.0" y="32.0"/>
      <point x="290.0" y="46.0"/>
      <point x="290.0" y="70.0" type="curve" smooth="yes"/>
    </contour>
    <component base="arTah.above" xOffset="305.0" yOffset="723.0" identifier="mark_arTah.above"/>
    <component base="ar3Dot.above" xOffset="305.0" yOffset="723.0" identifier="mark_ar3Dot.above"/>
    <component base="ar1Dot.above" xOffset="305.0" yOffset="723.0" identifier="mark_ar1Dot.above"/>
    <component base="uni0651" xOffset="305.0" yOffset="761.0" identifier="mark_uni0651"/>
    <component base="uni064E" xOffset="305.0" yOffset="743.0" identifier="mark_uni064E"/>
    <component base="uni064B" xOffset="305.0" yOffset="761.0" identifier="mark_uni064B"/>
    <component base="ar3IDot.below" xOffset="305.0" yOffset="-100.0" identifier="mark_ar3IDot.below"/>
    <component base="ar2Dot.below" xOffset="305.0" yOffset="-100.0" identifier="mark_ar2Dot.below"/>
    <component base="uni0650" xOffset="305.0" yOffset="-120.0" identifier="mark_uni0650"/>
    <component base="uni0656" xOffset="305.0" yOffset="-100.0" identifier="mark_uni0656"/>
    <component base="uni064D" xOffset="305.0" yOffset="-129.0" identifier="mark_uni064D"/>
    <component base="ar1Dot.below" xOffset="305.0" yOffset="-100.0" identifier="mark_ar1Dot.below"/>
    <component base="ar3Dot.below" xOffset="305.0" yOffset="-100.0" identifier="mark_ar3Dot.below"/>
    <component base="uni0670" xOffset="305.0" yOffset="723.0" identifier="mark_uni0670"/>
    <component base="uni064C" xOffset="304.0" yOffset="755.0" identifier="mark_uni064C"/>
    <component base="uni064F" xOffset="299.0" yOffset="755.0" identifier="mark_uni064F"/>
    <component base="uni0652" xOffset="305.0" yOffset="760.0" identifier="mark_uni0652"/>
    <component base="ar2Dot.above" xOffset="305.0" yOffset="723.0" identifier="mark_ar2Dot.above"/>
    <component base="ar3IDot.above" xOffset="305.0" yOffset="723.0" identifier="mark_ar3IDot.above"/>
  </outline>
</glyph>
<glyph name="arLam.init" format="2">
  <advance width="196"/>
  <outline>
    <contour>
      <point x="124.0" y="624.0" type="line"/>
      <point x="156.0" y="624.0" type="line"/>
      <point x="156.0" y="70.0" type="line" smooth="yes"/>
      <point x="156.0" y="36.0"/>
      <point x="131.0" y="0.0"/>
      <point x="87.0" y="0.0" type="curve" smooth="yes"/>
      <point x="0.0" y="0.0" type="line"/>
      <point x="0.0" y="32.0" type="line"/>
      <point x="87.0" y="32.0" type="line" smooth="yes"/>
      <point x="111.0" y="32.0"/>
      <point x="124.0" y="50.0"/>
      <point x="124.0" y="70.0" type="curve" smooth="yes"/>
    </contour>
    <component base="arTah.above" xOffset="140.0" yOffset="723.0" identifier="mark_arTah.above"/>
    <component base="ar3Dot.above" xOffset="140.0" yOffset="723.0" identifier="mark_ar3Dot.above"/>
    <component base="ar1Dot.above" xOffset="140.0" yOffset="723.0" identifier="mark_ar1Dot.above"/>
    <component base="uni0651" xOffset="140.0" yOffset="761.0" identifier="mark_uni0651"/>
    <component base="uni064E" xOffset="140.0" yOffset="743.0" identifier="mark_uni064E"/>
    <component base="uni064B" xOffset="140.0" yOffset="761.0" identifier="mark_uni064B"/>
    <component base="ar3IDot.below" xOffset="110.0" yOffset="-100.0" identifier="mark_ar3IDot.below"/>
    <component base="ar2Dot.below" xOffset="110.0" yOffset="-100.0" identifier="mark_ar2Dot.below"/>
    <component base="uni0650" xOffset="110.0" yOffset="-120.0" identifier="mark_uni0650"/>
    <component base="uni0656" xOffset="110.0" yOffset="-100.0" identifier="mark_uni0656"/>
    <component base="uni064D" xOffset="110.0" yOffset="-129.0" identifier="mark_uni064D"/>
    <component base="ar1Dot.below" xOffset="110.0" yOffset="-100.0" identifier="mark_ar1Dot.below"/>
    <component base="ar3Dot.below" xOffset="110.0" yOffset="-100.0" identifier="mark_ar3Dot.below"/>
    <component base="uni0670" xOffset="140.0" yOffset="723.0" identifier="mark_uni0670"/>
    <component base="uni064C" xOffset="139.0" yOffset="755.0" identifier="mark_uni064C"/>
    <component base="uni064F" xOffset="134.0" yOffset="755.0" identifier="mark_uni064F"/>
    <component base="uni0652" xOffset="140.0" yOffset="760.0" identifier="mark_uni0652"/>
    <component base="ar2Dot.above" xOffset="140.0" yOffset="723.0" identifier="mark_ar2Dot.above"/>
    <component base="ar3IDot.above" xOffset="140.0" yOffset="723.0" identifier="mark_ar3IDot.above"/>
  </outline>
</glyph>
<glyph name="arLam.isol" format="2">
  <advance width="480"/>
  <outline>
    <contour>
      <point x="408.0" y="624.0" type="line"/>
      <point x="440.0" y="624.0" type="line"/>
      <point x="440.0" y="-78.0" type="line" smooth="yes"/>
      <point x="440.0" y="-113.0"/>
      <point x="414.0" y="-148.0"/>
      <point x="370.0" y="-148.0" type="curve" smooth="yes"/>
      <point x="111.0" y="-148.0" type="line" smooth="yes"/>
      <point x="70.0" y="-148.0"/>
      <point x="40.0" y="-120.0"/>
      <point x="40.0" y="-79.0" type="curve" smooth="yes"/>
      <point x="40.0" y="110.0" type="line"/>
      <point x="72.0" y="110.0" type="line"/>
      <point x="72.0" y="-79.0" type="line" smooth="yes"/>
      <point x="72.0" y="-102.0"/>
      <point x="86.0" y="-116.0"/>
      <point x="111.0" y="-116.0" type="curve" smooth="yes"/>
      <point x="370.0" y="-116.0" type="line" smooth="yes"/>
      <point x="394.0" y="-116.0"/>
      <point x="408.0" y="-97.0"/>
      <point x="408.0" y="-78.0" type="curve" smooth="yes"/>
    </contour>
    <component base="arTah.above" xOffset="424.0" yOffset="674.0" identifier="mark_arTah.above"/>
    <component base="ar3Dot.above" xOffset="424.0" yOffset="674.0" identifier="mark_ar3Dot.above"/>
    <component base="ar1Dot.above" xOffset="424.0" yOffset="674.0" identifier="mark_ar1Dot.above"/>
    <component base="uni0651" xOffset="424.0" yOffset="712.0" identifier="mark_uni0651"/>
    <component base="uni064E" xOffset="424.0" yOffset="694.0" identifier="mark_uni064E"/>
    <component base="uni064B" xOffset="424.0" yOffset="712.0" identifier="mark_uni064B"/>
    <component base="ar3IDot.below" xOffset="227.0" yOffset="-258.0" identifier="mark_ar3IDot.below"/>
    <component base="ar2Dot.below" xOffset="227.0" yOffset="-258.0" identifier="mark_ar2Dot.below"/>
    <component base="uni0650" xOffset="227.0" yOffset="-278.0" identifier="mark_uni0650"/>
    <component base="uni0656" xOffset="227.0" yOffset="-258.0" identifier="mark_uni0656"/>
    <component base="uni064D" xOffset="227.0" yOffset="-287.0" identifier="mark_uni064D"/>
    <component base="ar1Dot.below" xOffset="227.0" yOffset="-258.0" identifier="mark_ar1Dot.below"/>
    <component base="ar3Dot.below" xOffset="227.0" yOffset="-258.0" identifier="mark_ar3Dot.below"/>
    <component base="uni0670" xOffset="424.0" yOffset="674.0" identifier="mark_uni0670"/>
    <component base="uni064C" xOffset="423.0" yOffset="706.0" identifier="mark_uni064C"/>
    <component base="uni064F" xOffset="418.0" yOffset="706.0" identifier="mark_uni064F"/>
    <component base="uni0652" xOffset="424.0" yOffset="711.0" identifier="mark_uni0652"/>
    <component base="ar2Dot.above" xOffset="424.0" yOffset="674.0" identifier="mark_ar2Dot.above"/>
    <component base="ar3IDot.above" xOffset="424.0" yOffset="674.0" identifier="mark_ar3IDot.above"/>
  </outline>
</glyph>
<glyph name="arMeem.init" format="2">
  <advance width="475"/>
  <outline>
    <contour>
      <point x="0.0" y="0.0" type="line"/>
      <point x="0.0" y="32.0" type="line"/>
      <point x="94.0" y="32.0" type="line" smooth="yes"/>
      <point x="126.0" y="32.0"/>
      <point x="135.0" y="50.0"/>
      <point x="136.0" y="70.0" type="curve" smooth="yes"/>
      <point x="136.0" y="201.0" type="line" smooth="yes"/>
      <point x="136.0" y="236.0"/>
      <point x="148.0" y="265.0"/>
      <point x="169.0" y="285.0" type="curve" smooth="yes"/>
      <point x="217.0" y="332.0"/>
      <point x="305.0" y="330.0"/>
      <point x="358.0" y="275.0" type="curve" smooth="yes"/>
      <point x="411.0" y="219.0"/>
      <point x="435.0" y="169.0"/>
      <point x="435.0" y="125.0" type="curve" smooth="yes"/>
      <point x="435.0" y="41.0"/>
      <point x="349.0" y="0.0"/>
      <point x="264.0" y="0.0" type="curve" smooth="yes"/>
      <point x="166.0" y="0.0" type="line"/>
      <point x="166.0" y="32.0" type="line"/>
      <point x="264.0" y="32.0" type="line" smooth="yes"/>
      <point x="344.0" y="32.0"/>
      <point x="403.0" y="69.0"/>
      <point x="403.0" y="125.0" type="curve" smooth="yes"/>
      <point x="403.0" y="157.0"/>
      <point x="384.0" y="200.0"/>
      <point x="334.0" y="253.0" type="curve" smooth="yes"/>
      <point x="293.0" y="296.0"/>
      <point x="226.0" y="295.0"/>
      <point x="192.0" y="262.0" type="curve" smooth="yes"/>
      <point x="178.0" y="248.0"/>
      <point x="168.0" y="228.0"/>
      <point x="168.0" y="201.0" type="curve" smooth="yes"/>
      <point x="168.0" y="70.0" type="line"/>
      <point x="167.0" y="38.0"/>
      <point x="146.0" y="0.0"/>
      <point x="94.0" y="0.0" type="curve" smooth="yes"/>
    </contour>
    <component base="uni0650" xOffset="189.0" yOffset="-130.0" identifier="mark_uni0650"/>
    <component base="uni0656" xOffset="189.0" yOffset="-110.0" identifier="mark_uni0656"/>
    <component base="ar3Dot.below" xOffset="189.0" yOffset="-110.0" identifier="mark_ar3Dot.below"/>
    <component base="ar1Dot.below" xOffset="189.0" yOffset="-110.0" identifier="mark_ar1Dot.below"/>
    <component base="uni0651" xOffset="267.0" yOffset="486.0" identifier="mark_uni0651"/>
    <component base="uni064E" xOffset="267.0" yOffset="468.0" identifier="mark_uni064E"/>
    <component base="uni064B" xOffset="267.0" yOffset="486.0" identifier="mark_uni064B"/>
    <component base="arTah.above" xOffset="267.0" yOffset="448.0" identifier="mark_arTah.above"/>
    <component base="ar3Dot.above" xOffset="267.0" yOffset="448.0" identifier="mark_ar3Dot.above"/>
    <component base="ar1Dot.above" xOffset="267.0" yOffset="448.0" identifier="mark_ar1Dot.above"/>
    <component base="ar2Dot.above" xOffset="267.0" yOffset="448.0" identifier="mark_ar2Dot.above"/>
    <component base="ar3IDot.above" xOffset="267.0" yOffset="448.0" identifier="mark_ar3IDot.above"/>
    <component base="uni0670" xOffset="267.0" yOffset="448.0" identifier="mark_uni0670"/>
    <component base="uni064C" xOffset="266.0" yOffset="480.0" identifier="mark_uni064C"/>
    <component base="uni064F" xOffset="261.0" yOffset="480.0" identifier="mark_uni064F"/>
    <component base="uni0652" xOffset="267.0" yOffset="485.0" identifier="mark_uni0652"/>
    <component base="ar2Dot.below" xOffset="189.0" yOffset="-110.0" identifier="mark_ar2Dot.below"/>
    <component base="ar3IDot.below" xOffset="189.0" yOffset="-110.0" identifier="mark_ar3IDot.below"/>
    <component base="uni064D" xOffset="189.0" yOffset="-139.0" identifier="mark_uni064D"/>
  </outline>
</glyph>
<glyph name="arMeem.isol" format="2">
  <advance width="557"/>
  <outline>
    <contour>
      <point x="82.0" y="32.0" type="line"/>
      <point x="106.0" y="-0.0" type="line"/>
      <point x="64.0" y="-0.0" type="line"/>
      <point x="40.0" y="32.0" type="line"/>
    </contour>
    <component base="arMeem.init" xOffset="82.0"/>
    <component base="arTah.above" xOffset="349.0" yOffset="449.0" identifier="mark_arTah.above"/>
    <component base="ar3Dot.above" xOffset="349.0" yOffset="449.0" identifier="mark_ar3Dot.above"/>
    <component base="ar1Dot.above" xOffset="349.0" yOffset="449.0" identifier="mark_ar1Dot.above"/>
    <component base="uni0651" xOffset="349.0" yOffset="487.0" identifier="mark_uni0651"/>
    <component base="uni064E" xOffset="349.0" yOffset="469.0" identifier="mark_uni064E"/>
    <component base="uni064B" xOffset="349.0" yOffset="487.0" identifier="mark_uni064B"/>
    <component base="ar3IDot.below" xOffset="271.0" yOffset="-109.0" identifier="mark_ar3IDot.below"/>
    <component base="ar2Dot.below" xOffset="271.0" yOffset="-109.0" identifier="mark_ar2Dot.below"/>
    <component base="uni0650" xOffset="271.0" yOffset="-129.0" identifier="mark_uni0650"/>
    <component base="uni0656" xOffset="271.0" yOffset="-109.0" identifier="mark_uni0656"/>
    <component base="uni064D" xOffset="271.0" yOffset="-138.0" identifier="mark_uni064D"/>
    <component base="ar1Dot.below" xOffset="271.0" yOffset="-109.0" identifier="mark_ar1Dot.below"/>
    <component base="ar3Dot.below" xOffset="271.0" yOffset="-109.0" identifier="mark_ar3Dot.below"/>
    <component base="uni0670" xOffset="349.0" yOffset="449.0" identifier="mark_uni0670"/>
    <component base="uni064C" xOffset="348.0" yOffset="481.0" identifier="mark_uni064C"/>
    <component base="uni064F" xOffset="343.0" yOffset="481.0" identifier="mark_uni064F"/>
    <component base="uni0652" xOffset="349.0" yOffset="486.0" identifier="mark_uni0652"/>
    <component base="ar2Dot.above" xOffset="349.0" yOffset="449.0" identifier="mark_ar2Dot.above"/>
    <component base="ar3IDot.above" xOffset="349.0" yOffset="449.0" identifier="mark_ar3IDot.above"/>
  </outline>
</glyph>
<glyph name="arNoon.fina" format="2">
  <advance width="574"/>
  <outline>
    <contour>
      <point x="574.0" y="32.0" type="line"/>
      <point x="574.0" y="0.0" type="line"/>
      <point x="432.0" y="0.0" type="line"/>
      <point x="432.0" y="32.0" type="line"/>
    </contour>
    <component base="arNoon.isol"/>
  </outline>
</glyph>
<glyph name="arNoon.isol" format="2">
  <advance width="476"/>
  <outline>
    <contour>
      <point x="404.0" y="152.0" type="line"/>
      <point x="436.0" y="152.0" type="line"/>
      <point x="436.0" y="-119.0" type="line" smooth="yes"/>
      <point x="436.0" y="-153.0"/>
      <point x="408.0" y="-187.0"/>
      <point x="369.0" y="-187.0" type="curve" smooth="yes"/>
      <point x="230.0" y="-187.0" type="line" smooth="yes"/>
      <point x="124.0" y="-187.0"/>
      <point x="40.0" y="-133.0"/>
      <point x="40.0" y="-39.0" type="curve" smooth="yes"/>
      <point x="40.0" y="151.0" type="line"/>
      <point x="72.0" y="151.0" type="line"/>
      <point x="72.0" y="-39.0" type="line" smooth="yes"/>
      <point x="72.0" y="-105.0"/>
      <point x="134.0" y="-155.0"/>
      <point x="230.0" y="-155.0" type="curve" smooth="yes"/>
      <point x="369.0" y="-155.0" type="line" smooth="yes"/>
      <point x="388.0" y="-155.0"/>
      <point x="404.0" y="-137.0"/>
      <point x="404.0" y="-119.0" type="curve" smooth="yes"/>
    </contour>
    <component base="ar3IDot.below" xOffset="299.0" yOffset="-297.0" identifier="mark_ar3IDot.below"/>
    <component base="ar2Dot.below" xOffset="299.0" yOffset="-297.0" identifier="mark_ar2Dot.below"/>
    <component base="uni0650" xOffset="299.0" yOffset="-317.0" identifier="mark_uni0650"/>
    <component base="uni0656" xOffset="299.0" yOffset="-297.0" identifier="mark_uni0656"/>
    <component base="ar3IDot.above" xOffset="238.0" yOffset="302.0" identifier="mark_ar3IDot.above"/>
    <component base="ar2Dot.above" xOffset="238.0" yOffset="302.0" identifier="mark_ar2Dot.above"/>
    <component base="uni0652" xOffset="238.0" yOffset="339.0" identifier="mark_uni0652"/>
    <component base="uni064F" xOffset="232.0" yOffset="334.0" identifier="mark_uni064F"/>
    <component base="uni064C" xOffset="237.0" yOffset="334.0" identifier="mark_uni064C"/>
    <component base="uni0670" xOffset="238.0" yOffset="302.0" identifier="mark_uni0670"/>
    <component base="uni064B" xOffset="238.0" yOffset="340.0" identifier="mark_uni064B"/>
    <component base="uni064E" xOffset="238.0" yOffset="322.0" identifier="mark_uni064E"/>
    <component base="uni0651" xOffset="238.0" yOffset="340.0" identifier="mark_uni0651"/>
    <component base="ar1Dot.above" xOffset="238.0" yOffset="302.0" identifier="mark_ar1Dot.above"/>
    <component base="ar3Dot.above" xOffset="238.0" yOffset="302.0" identifier="mark_ar3Dot.above"/>
    <component base="arTah.above" xOffset="238.0" yOffset="302.0" identifier="mark_arTah.above"/>
    <component base="uni064D" xOffset="299.0" yOffset="-326.0" identifier="mark_uni064D"/>
    <component base="ar1Dot.below" xOffset="299.0" yOffset="-297.0" identifier="mark_ar1Dot.below"/>
    <component base="ar3Dot.below" xOffset="299.0" yOffset="-297.0" identifier="mark_ar3Dot.below"/>
  </outline>
</glyph>
<glyph name="arQaf.fina" format="2">
  <advance width="760"/>
  <outline>
    <contour>
      <point x="760.0" y="32.0" type="line"/>
      <point x="760.0" y="0.0" type="line"/>
      <point x="628.0" y="0.0" type="line" smooth="yes"/>
      <point x="469.0" y="-3.0"/>
      <point x="406.0" y="-4.0"/>
      <point x="360.0" y="73.0" type="curve" smooth="yes"/>
      <point x="315.0" y="148.0"/>
      <point x="354.0" y="239.0"/>
      <point x="409.0" y="275.0" type="curve" smooth="yes"/>
      <point x="471.0" y="315.0"/>
      <point x="580.0" y="308.0"/>
      <point x="627.0" y="234.0" type="curve" smooth="yes"/>
      <point x="640.0" y="213.0"/>
      <point x="648.0" y="186.0"/>
      <point x="648.0" y="155.0" type="curve" smooth="yes"/>
      <point x="648.0" y="-129.0" type="line" smooth="yes"/>
      <point x="648.0" y="-164.0"/>
      <point x="620.0" y="-199.0"/>
      <point x="577.0" y="-199.0" type="curve" smooth="yes"/>
      <point x="155.0" y="-199.0" type="line" smooth="yes"/>
      <point x="91.0" y="-199.0"/>
      <point x="40.0" y="-156.0"/>
      <point x="40.0" y="-89.0" type="curve" smooth="yes"/>
      <point x="40.0" y="153.0" type="line"/>
      <point x="72.0" y="153.0" type="line"/>
      <point x="72.0" y="-89.0" type="line" smooth="yes"/>
      <point x="72.0" y="-138.0"/>
      <point x="105.0" y="-167.0"/>
      <point x="155.0" y="-167.0" type="curve" smooth="yes"/>
      <point x="577.0" y="-167.0" type="line" smooth="yes"/>
      <point x="602.0" y="-167.0"/>
      <point x="616.0" y="-148.0"/>
      <point x="616.0" y="-129.0" type="curve" smooth="yes"/>
      <point x="616.0" y="155.0" type="line" smooth="yes"/>
      <point x="616.0" y="181.0"/>
      <point x="610.0" y="201.0"/>
      <point x="600.0" y="217.0" type="curve" smooth="yes"/>
      <point x="565.0" y="273.0"/>
      <point x="477.0" y="281.0"/>
      <point x="427.0" y="249.0" type="curve" smooth="yes"/>
      <point x="384.0" y="221.0"/>
      <point x="353.0" y="146.0"/>
      <point x="388.0" y="89.0" type="curve" smooth="yes"/>
      <point x="424.0" y="29.0"/>
      <point x="468.0" y="29.0"/>
      <point x="623.0" y="32.0" type="curve" smooth="yes"/>
    </contour>
    <component base="arTah.above" xOffset="499.0" yOffset="450.0" identifier="mark_arTah.above"/>
    <component base="ar3Dot.above" xOffset="499.0" yOffset="450.0" identifier="mark_ar3Dot.above"/>
    <component base="ar1Dot.above" xOffset="499.0" yOffset="450.0" identifier="mark_ar1Dot.above"/>
    <component base="uni0651" xOffset="499.0" yOffset="488.0" identifier="mark_uni0651"/>
    <component base="uni064E" xOffset="499.0" yOffset="470.0" identifier="mark_uni064E"/>
    <component base="uni064B" xOffset="499.0" yOffset="488.0" identifier="mark_uni064B"/>
    <component base="ar3IDot.below" xOffset="374.0" yOffset="-299.0" identifier="mark_ar3IDot.below"/>
    <component base="ar2Dot.below" xOffset="374.0" yOffset="-299.0" identifier="mark_ar2Dot.below"/>
    <component base="uni0650" xOffset="374.0" yOffset="-319.0" identifier="mark_uni0650"/>
    <component base="uni0656" xOffset="374.0" yOffset="-299.0" identifier="mark_uni0656"/>
    <component base="uni064D" xOffset="374.0" yOffset="-328.0" identifier="mark_uni064D"/>
    <component base="ar1Dot.below" xOffset="374.0" yOffset="-299.0" identifier="mark_ar1Dot.below"/>
    <component base="ar3Dot.below" xOffset="374.0" yOffset="-299.0" identifier="mark_ar3Dot.below"/>
    <component base="uni0670" xOffset="499.0" yOffset="450.0" identifier="mark_uni0670"/>
    <component base="uni064C" xOffset="498.0" yOffset="482.0" identifier="mark_uni064C"/>
    <component base="uni064F" xOffset="493.0" yOffset="482.0" identifier="mark_uni064F"/>
    <component base="uni0652" xOffset="499.0" yOffset="487.0" identifier="mark_uni0652"/>
    <component base="ar2Dot.above" xOffset="499.0" yOffset="450.0" identifier="mark_ar2Dot.above"/>
    <component base="ar3IDot.above" xOffset="499.0" yOffset="450.0" identifier="mark_ar3IDot.above"/>
  </outline>
</glyph>
<glyph name="arReh.fina" format="2">
  <advance width="300"/>
  <outline>
    <contour>
      <point x="300.0" y="32.0" type="line"/>
      <point x="300.0" y="0.0" type="line"/>
      <point x="179.0" y="0.0" type="line"/>
      <point x="179.0" y="32.0" type="line"/>
    </contour>
    <component base="arReh.isol" yOffset="-1.0"/>
  </outline>
</glyph>
<glyph name="arReh.isol" format="2">
  <advance width="227"/>
  <anchor x="171.0" y="291.0" name="dotAbove"/>
  <anchor x="171.0" y="329.0" name="markAbove"/>
  <anchor x="93.0" y="-280.0" name="dotBelow"/>
  <anchor x="93.0" y="-300.0" name="markBelow"/>
  <outline>
    <contour>
      <point x="155.0" y="151.0" type="line"/>
      <point x="187.0" y="151.0" type="line"/>
      <point x="187.0" y="-37.0" type="line" smooth="yes"/>
      <point x="187.0" y="-119.0"/>
      <point x="167.0" y="-200.0"/>
      <point x="72.0" y="-200.0" type="curve" smooth="yes"/>
      <point x="0.0" y="-200.0" type="line"/>
      <point x="0.0" y="-168.0" type="line"/>
      <point x="72.0" y="-168.0" type="line" smooth="yes"/>
      <point x="139.0" y="-168.0"/>
      <point x="155.0" y="-119.0"/>
      <point x="155.0" y="-37.0" type="curve" smooth="yes"/>
    </contour>
  </outline>
</glyph>
<glyph name="arSad.head" format="2">
  <outline>
    <contour>
      <point x="-207.0" y="42.0" type="curve"/>
      <point x="-182.0" y="24.0" type="line"/>
      <point x="-78.0" y="166.0"/>
      <point x="18.0" y="305.0"/>
      <point x="120.0" y="268.0" type="curve" smooth="yes"/>
      <point x="163.0" y="250.0"/>
      <point x="184.0" y="214.0"/>
      <point x="186.0" y="135.0" type="curve" smooth="yes"/>
      <point x="188.0" y="67.0" type="line" smooth="yes"/>
      <point x="189.0" y="48.0"/>
      <point x="174.0" y="32.0"/>
      <point x="151.0" y="32.0" type="curve" smooth="yes"/>
      <point x="-221.0" y="32.0" type="line"/>
      <point x="-221.0" y="0.0" type="line"/>
      <point x="151.0" y="0.0" type="line" smooth="yes"/>
      <point x="190.0" y="0.0"/>
      <point x="221.0" y="31.0"/>
      <point x="220.0" y="69.0" type="curve" smooth="yes"/>
      <point x="218.0" y="135.0" type="line" smooth="yes"/>
      <point x="216.0" y="220.0"/>
      <point x="189.0" y="274.0"/>
      <point x="131.0" y="298.0" type="curve" smooth="yes"/>
      <point x="-2.0" y="347.0"/>
      <point x="-106.0" y="181.0"/>
    </contour>
  </outline>
</glyph>
<glyph name="arSad.init" format="2">
  <advance width="620"/>
  <anchor x="365.0" y="-149.0" name="dotBelow"/>
  <anchor x="365.0" y="-169.0" name="markBelow"/>
  <anchor x="277.0" y="427.0" name="dotAbove"/>
  <anchor x="277.0" y="464.0" name="markAbove"/>
  <outline>
    <contour>
      <point x="0.0" y="0.0" type="line"/>
      <point x="0.0" y="32.0" type="line"/>
      <point x="157.0" y="32.0" type="line"/>
      <point x="157.0" y="0.0" type="line"/>
    </contour>
    <contour>
      <point x="123.0" y="241.0" type="line"/>
      <point x="155.0" y="241.0" type="line"/>
      <point x="155.0" y="22.0" type="line"/>
      <point x="123.0" y="22.0" type="line"/>
    </contour>
    <component base="arSad.head" xOffset="360.0"/>
  </outline>
</glyph>
<glyph name="arSad.isol" format="2">
  <advance width="906"/>
  <outline>
    <contour>
      <point x="409.0" y="241.0" type="line"/>
      <point x="441.0" y="241.0" type="line"/>
      <point x="441.0" y="-133.0" type="line" smooth="yes"/>
      <point x="441.0" y="-171.0"/>
      <point x="412.0" y="-201.0"/>
      <point x="372.0" y="-201.0" type="curve" smooth="yes"/>
      <point x="105.0" y="-201.0" type="line" smooth="yes"/>
      <point x="67.0" y="-201.0"/>
      <point x="40.0" y="-165.0"/>
      <point x="40.0" y="-129.0" type="curve" smooth="yes"/>
      <point x="40.0" y="149.0" type="line"/>
      <point x="72.0" y="149.0" type="line"/>
      <point x="72.0" y="-129.0" type="line" smooth="yes"/>
      <point x="72.0" y="-151.0"/>
      <point x="89.0" y="-169.0"/>
      <point x="105.0" y="-169.0" type="curve" smooth="yes"/>
      <point x="372.0" y="-169.0" type="line" smooth="yes"/>
      <point x="394.0" y="-169.0"/>
      <point x="409.0" y="-153.0"/>
      <point x="409.0" y="-133.0" type="curve" smooth="yes"/>
    </contour>
    <component base="arSad.head" xOffset="646.0"/>
    <component base="arTah.above" xOffset="563.0" yOffset="427.0" identifier="mark_arTah.above"/>
    <component base="ar3Dot.above" xOffset="563.0" yOffset="427.0" identifier="mark_ar3Dot.above"/>
    <component base="ar1Dot.above" xOffset="563.0" yOffset="427.0" identifier="mark_ar1Dot.above"/>
    <component base="uni0651" xOffset="563.0" yOffset="465.0" identifier="mark_uni0651"/>
    <component base="uni064E" xOffset="563.0" yOffset="447.0" identifier="mark_uni064E"/>
    <component base="uni064B" xOffset="563.0" yOffset="465.0" identifier="mark_uni064B"/>
    <component base="ar3IDot.below" xOffset="229.0" yOffset="-311.0" identifier="mark_ar3IDot.below"/>
    <component base="ar2Dot.below" xOffset="229.0" yOffset="-311.0" identifier="mark_ar2Dot.below"/>
    <component base="uni0650" xOffset="229.0" yOffset="-331.0" identifier="mark_uni0650"/>
    <component base="uni0656" xOffset="229.0" yOffset="-311.0" identifier="mark_uni0656"/>
    <component base="uni064D" xOffset="229.0" yOffset="-340.0" identifier="mark_uni064D"/>
    <component base="ar1Dot.below" xOffset="229.0" yOffset="-311.0" identifier="mark_ar1Dot.below"/>
    <component base="ar3Dot.below" xOffset="229.0" yOffset="-311.0" identifier="mark_ar3Dot.below"/>
    <component base="uni0670" xOffset="563.0" yOffset="427.0" identifier="mark_uni0670"/>
    <component base="uni064C" xOffset="562.0" yOffset="459.0" identifier="mark_uni064C"/>
    <component base="uni064F" xOffset="557.0" yOffset="459.0" identifier="mark_uni064F"/>
    <component base="uni0652" xOffset="563.0" yOffset="464.0" identifier="mark_uni0652"/>
    <component base="ar2Dot.above" xOffset="563.0" yOffset="427.0" identifier="mark_ar2Dot.above"/>
    <component base="ar3IDot.above" xOffset="563.0" yOffset="427.0" identifier="mark_ar3IDot.above"/>
  </outline>
</glyph>
<glyph name="arSeen.init" format="2">
  <advance width="635"/>
  <outline>
    <contour>
      <point x="216.0" y="340.0" type="line"/>
      <point x="248.0" y="340.0" type="line"/>
      <point x="248.0" y="68.0" type="line" smooth="yes"/>
      <point x="248.0" y="30.0"/>
      <point x="219.0" y="0.0"/>
      <point x="179.0" y="0.0" type="curve" smooth="yes"/>
      <point x="0.0" y="0.0" type="line"/>
      <point x="0.0" y="32.0" type="line"/>
      <point x="179.0" y="32.0" type="line" smooth="yes"/>
      <point x="201.0" y="32.0"/>
      <point x="216.0" y="48.0"/>
      <point x="216.0" y="68.0" type="curve" smooth="yes"/>
    </contour>
    <contour>
      <point x="389.0" y="340.0" type="line"/>
      <point x="421.0" y="340.0" type="line"/>
      <point x="421.0" y="67.0" type="line" smooth="yes"/>
      <point x="421.0" y="29.0"/>
      <point x="391.0" y="0.0"/>
      <point x="352.0" y="0.0" type="curve" smooth="yes"/>
      <point x="240.0" y="0.0" type="line"/>
      <point x="240.0" y="32.0" type="line"/>
      <point x="352.0" y="32.0" type="line" smooth="yes"/>
      <point x="375.0" y="32.0"/>
      <point x="389.0" y="47.0"/>
      <point x="389.0" y="67.0" type="curve" smooth="yes"/>
    </contour>
    <contour>
      <point x="563.0" y="340.0" type="line"/>
      <point x="595.0" y="340.0" type="line"/>
      <point x="595.0" y="68.0" type="line" smooth="yes"/>
      <point x="595.0" y="30.0"/>
      <point x="566.0" y="0.0"/>
      <point x="526.0" y="0.0" type="curve" smooth="yes"/>
      <point x="410.0" y="0.0" type="line"/>
      <point x="410.0" y="32.0" type="line"/>
      <point x="526.0" y="32.0" type="line" smooth="yes"/>
      <point x="548.0" y="32.0"/>
      <point x="563.0" y="48.0"/>
      <point x="563.0" y="68.0" type="curve" smooth="yes"/>
    </contour>
    <component base="arTah.above" xOffset="405.0" yOffset="512.0" identifier="mark_arTah.above"/>
    <component base="ar3Dot.above" xOffset="405.0" yOffset="512.0" identifier="mark_ar3Dot.above"/>
    <component base="ar1Dot.above" xOffset="405.0" yOffset="512.0" identifier="mark_ar1Dot.above"/>
    <component base="uni0651" xOffset="405.0" yOffset="550.0" identifier="mark_uni0651"/>
    <component base="uni064E" xOffset="405.0" yOffset="532.0" identifier="mark_uni064E"/>
    <component base="uni064B" xOffset="405.0" yOffset="550.0" identifier="mark_uni064B"/>
    <component base="ar3IDot.below" xOffset="405.0" yOffset="-150.0" identifier="mark_ar3IDot.below"/>
    <component base="ar2Dot.below" xOffset="405.0" yOffset="-150.0" identifier="mark_ar2Dot.below"/>
    <component base="uni0650" xOffset="405.0" yOffset="-170.0" identifier="mark_uni0650"/>
    <component base="uni0656" xOffset="405.0" yOffset="-150.0" identifier="mark_uni0656"/>
    <component base="uni064D" xOffset="405.0" yOffset="-179.0" identifier="mark_uni064D"/>
    <component base="ar1Dot.below" xOffset="405.0" yOffset="-150.0" identifier="mark_ar1Dot.below"/>
    <component base="ar3Dot.below" xOffset="405.0" yOffset="-150.0" identifier="mark_ar3Dot.below"/>
    <component base="uni0670" xOffset="405.0" yOffset="512.0" identifier="mark_uni0670"/>
    <component base="uni064C" xOffset="404.0" yOffset="544.0" identifier="mark_uni064C"/>
    <component base="uni064F" xOffset="399.0" yOffset="544.0" identifier="mark_uni064F"/>
    <component base="uni0652" xOffset="405.0" yOffset="549.0" identifier="mark_uni0652"/>
    <component base="ar2Dot.above" xOffset="405.0" yOffset="512.0" identifier="mark_ar2Dot.above"/>
    <component base="ar3IDot.above" xOffset="405.0" yOffset="512.0" identifier="mark_ar3IDot.above"/>
  </outline>
</glyph>
<glyph name="arSeen.isol" format="2">
  <advance width="828"/>
  <anchor x="598.0" y="512.0" name="dotAbove"/>
  <anchor x="598.0" y="550.0" name="markAbove"/>
  <anchor x="229.0" y="-311.0" name="dotBelow"/>
  <anchor x="229.0" y="-331.0" name="markBelow"/>
  <outline>
    <contour>
      <point x="409.0" y="342.0" type="line"/>
      <point x="441.0" y="342.0" type="line"/>
      <point x="441.0" y="-133.0" type="line" smooth="yes"/>
      <point x="441.0" y="-171.0"/>
      <point x="412.0" y="-201.0"/>
      <point x="372.0" y="-201.0" type="curve" smooth="yes"/>
      <point x="105.0" y="-201.0" type="line" smooth="yes"/>
      <point x="67.0" y="-201.0"/>
      <point x="40.0" y="-165.0"/>
      <point x="40.0" y="-129.0" type="curve" smooth="yes"/>
      <point x="40.0" y="149.0" type="line"/>
      <point x="72.0" y="149.0" type="line"/>
      <point x="72.0" y="-129.0" type="line" smooth="yes"/>
      <point x="72.0" y="-151.0"/>
      <point x="89.0" y="-169.0"/>
      <point x="105.0" y="-169.0" type="curve" smooth="yes"/>
      <point x="372.0" y="-169.0" type="line" smooth="yes"/>
      <point x="394.0" y="-169.0"/>
      <point x="409.0" y="-153.0"/>
      <point x="409.0" y="-133.0" type="curve" smooth="yes"/>
    </contour>
    <contour>
      <point x="582.0" y="340.0" type="line"/>
      <point x="614.0" y="340.0" type="line"/>
      <point x="614.0" y="68.0" type="line" smooth="yes"/>
      <point x="614.0" y="30.0"/>
      <point x="585.0" y="0.0"/>
      <point x="545.0" y="0.0" type="curve" smooth="yes"/>
      <point x="433.0" y="0.0" type="line"/>
      <point x="433.0" y="32.0" type="line"/>
      <point x="545.0" y="32.0" type="line" smooth="yes"/>
      <point x="567.0" y="32.0"/>
      <point x="582.0" y="48.0"/>
      <point x="582.0" y="68.0" type="curve" smooth="yes"/>
    </contour>
    <contour>
      <point x="756.0" y="340.0" type="line"/>
      <point x="788.0" y="340.0" type="line"/>
      <point x="788.0" y="68.0" type="line" smooth="yes"/>
      <point x="788.0" y="30.0"/>
      <point x="757.0" y="0.0"/>
      <point x="718.0" y="0.0" type="curve" smooth="yes"/>
      <point x="603.0" y="0.0" type="line"/>
      <point x="603.0" y="32.0" type="line"/>
      <point x="718.0" y="32.0" type="line" smooth="yes"/>
      <point x="741.0" y="32.0"/>
      <point x="756.0" y="48.0"/>
      <point x="756.0" y="68.0" type="curve" smooth="yes"/>
    </contour>
  </outline>
</glyph>
<glyph name="arSwashKaf.isol" format="2">
  <advance width="850.6347591765035"/>
  <anchor x="433.0" y="-179.0" name="markBelow"/>
  <anchor x="181.46860643185298" y="482.15926493108725" name="markAbove"/>
  <outline>
    <contour>
      <point x="82.0" y="32.0" type="line"/>
      <point x="106.0" y="0.0" type="line"/>
      <point x="64.0" y="0.0" type="line"/>
      <point x="40.0" y="32.0" type="line"/>
    </contour>
    <component base="arSwashKaf.init" xOffset="64.0"/>
  </outline>
</glyph>
<glyph name="arTah.above" format="2">
  <outline>
    <contour>
      <point x="-133.0" y="0.0" type="line"/>
      <point x="-78.0" y="0.0" type="line"/>
      <point x="-78.0" y="16.0" type="line"/>
      <point x="-133.0" y="16.0" type="line"/>
    </contour>
    <contour>
      <point x="-80.0" y="21.0" type="curve"/>
      <point x="-67.5" y="12.0" type="line"/>
      <point x="-15.5" y="83.0"/>
      <point x="32.5" y="152.5"/>
      <point x="83.5" y="134.0" type="curve" smooth="yes"/>
      <point x="105.0" y="125.0"/>
      <point x="115.5" y="107.0"/>
      <point x="116.5" y="67.5" type="curve" smooth="yes"/>
      <point x="117.5" y="33.5" type="line" smooth="yes"/>
      <point x="118.0" y="24.0"/>
      <point x="110.5" y="16.0"/>
      <point x="99.0" y="16.0" type="curve" smooth="yes"/>
      <point x="-87.0" y="16.0" type="line"/>
      <point x="-87.0" y="0.0" type="line"/>
      <point x="99.0" y="0.0" type="line" smooth="yes"/>
      <point x="118.5" y="0.0"/>
      <point x="134.0" y="15.5"/>
      <point x="133.5" y="34.5" type="curve" smooth="yes"/>
      <point x="132.5" y="67.5" type="line" smooth="yes"/>
      <point x="131.5" y="110.0"/>
      <point x="118.0" y="137.0"/>
      <point x="89.0" y="149.0" type="curve" smooth="yes"/>
      <point x="22.5" y="173.5"/>
      <point x="-29.5" y="90.5"/>
    </contour>
    <contour>
      <point x="-81.0" y="312.0" type="line"/>
      <point x="-81.0" y="11.0" type="line"/>
      <point x="-65.0" y="11.0" type="line"/>
      <point x="-65.0" y="312.0" type="line"/>
    </contour>
  </outline>
</glyph>
<glyph name="arTah.isol" format="2">
  <advance width="613"/>
  <outline>
    <contour>
      <point x="40.0" y="0.0" type="line"/>
      <point x="40.0" y="32.0" type="line"/>
      <point x="150.0" y="32.0" type="line"/>
      <point x="150.0" y="0.0" type="line"/>
    </contour>
    <contour>
      <point x="144.0" y="624.0" type="line"/>
      <point x="176.0" y="624.0" type="line"/>
      <point x="176.0" y="22.0" type="line"/>
      <point x="144.0" y="22.0" type="line"/>
    </contour>
    <component base="arSad.head" xOffset="353.0"/>
    <component base="arTah.above" xOffset="396.0" yOffset="485.0" identifier="mark_arTah.above"/>
    <component base="ar3Dot.above" xOffset="396.0" yOffset="485.0" identifier="mark_ar3Dot.above"/>
    <component base="ar1Dot.above" xOffset="396.0" yOffset="485.0" identifier="mark_ar1Dot.above"/>
    <component base="uni0651" xOffset="396.0" yOffset="523.0" identifier="mark_uni0651"/>
    <component base="uni064E" xOffset="396.0" yOffset="505.0" identifier="mark_uni064E"/>
    <component base="uni064B" xOffset="396.0" yOffset="523.0" identifier="mark_uni064B"/>
    <component base="ar3IDot.below" xOffset="359.0" yOffset="-110.0" identifier="mark_ar3IDot.below"/>
    <component base="ar2Dot.below" xOffset="359.0" yOffset="-110.0" identifier="mark_ar2Dot.below"/>
    <component base="uni0650" xOffset="359.0" yOffset="-130.0" identifier="mark_uni0650"/>
    <component base="uni0656" xOffset="359.0" yOffset="-110.0" identifier="mark_uni0656"/>
    <component base="uni064D" xOffset="359.0" yOffset="-139.0" identifier="mark_uni064D"/>
    <component base="ar1Dot.below" xOffset="359.0" yOffset="-110.0" identifier="mark_ar1Dot.below"/>
    <component base="ar3Dot.below" xOffset="359.0" yOffset="-110.0" identifier="mark_ar3Dot.below"/>
    <component base="uni0670" xOffset="396.0" yOffset="485.0" identifier="mark_uni0670"/>
    <component base="uni064C" xOffset="395.0" yOffset="517.0" identifier="mark_uni064C"/>
    <component base="uni064F" xOffset="390.0" yOffset="517.0" identifier="mark_uni064F"/>
    <component base="uni0652" xOffset="396.0" yOffset="522.0" identifier="mark_uni0652"/>
    <component base="ar2Dot.above" xOffset="396.0" yOffset="485.0" identifier="mark_ar2Dot.above"/>
    <component base="ar3IDot.above" xOffset="396.0" yOffset="485.0" identifier="mark_ar3IDot.above"/>
  </outline>
</glyph>
<glyph name="arWaw.fina" format="2">
  <advance width="460"/>
  <anchor x="233.0" y="434.0" name="dotAbove"/>
  <anchor x="233.0" y="472.0" name="markAbove"/>
  <anchor x="233.0" y="434.0" name="uni0654"/>
  <anchor x="233.0" y="434.0" name="arSad.above"/>
  <anchor x="169.0" y="-309.0" name="dotBelow"/>
  <anchor x="169.0" y="-329.0" name="markBelow"/>
  <anchor x="233.0" y="434.0" name="arKaf.above"/>
  <anchor x="233.0" y="434.0" name="uni0653"/>
  <outline>
    <contour>
      <point x="460.0" y="32.0" type="line"/>
      <point x="460.0" y="0.0" type="line"/>
      <point x="313.0" y="0.0" type="line"/>
      <point x="313.0" y="32.0" type="line"/>
    </contour>
    <component base="arWaw.isol"/>
  </outline>
</glyph>
<glyph name="arWaw.isol" format="2">
  <advance width="387"/>
  <outline>
    <contour>
      <point x="331.0" y="0.0" type="line"/>
      <point x="171.0" y="0.0" type="line" smooth="yes"/>
      <point x="101.0" y="0.0"/>
      <point x="47.0" y="58.0"/>
      <point x="51.0" y="120.0" type="curve" smooth="yes"/>
      <point x="61.0" y="236.0"/>
      <point x="159.0" y="303.0"/>
      <point x="239.0" y="304.0" type="curve" smooth="yes"/>
      <point x="296.0" y="304.0"/>
      <point x="347.0" y="269.0"/>
      <point x="347.0" y="197.0" type="curve" smooth="yes"/>
      <point x="347.0" y="-37.0" type="line" smooth="yes"/>
      <point x="347.0" y="-118.0"/>
      <point x="286.0" y="-199.0"/>
      <point x="193.0" y="-199.0" type="curve" smooth="yes"/>
      <point x="0.0" y="-199.0" type="line"/>
      <point x="0.0" y="-167.0" type="line"/>
      <point x="193.0" y="-167.0" type="line" smooth="yes"/>
      <point x="266.0" y="-167.0"/>
      <point x="315.0" y="-104.0"/>
      <point x="315.0" y="-37.0" type="curve" smooth="yes"/>
      <point x="315.0" y="197.0" type="line" smooth="yes"/>
      <point x="315.0" y="250.0"/>
      <point x="283.0" y="272.0"/>
      <point x="240.0" y="272.0" type="curve" smooth="yes"/>
      <point x="176.0" y="272.0"/>
      <point x="92.0" y="216.0"/>
      <point x="83.0" y="118.0" type="curve" smooth="yes"/>
      <point x="81.0" y="76.0"/>
      <point x="119.0" y="32.0"/>
      <point x="171.0" y="32.0" type="curve" smooth="yes"/>
      <point x="331.0" y="32.0" type="line"/>
    </contour>
    <component base="arTah.above" xOffset="233.0" yOffset="434.0" identifier="mark_arTah.above"/>
    <component base="ar3Dot.above" xOffset="233.0" yOffset="434.0" identifier="mark_ar3Dot.above"/>
    <component base="ar1Dot.above" xOffset="233.0" yOffset="434.0" identifier="mark_ar1Dot.above"/>
    <component base="uni0651" xOffset="233.0" yOffset="472.0" identifier="mark_uni0651"/>
    <component base="uni064E" xOffset="233.0" yOffset="454.0" identifier="mark_uni064E"/>
    <component base="uni064B" xOffset="233.0" yOffset="472.0" identifier="mark_uni064B"/>
    <component base="uni0654" xOffset="233.0" yOffset="434.0" identifier="mark_uni0654"/>
    <component base="arSad.above" xOffset="233.0" yOffset="434.0" identifier="mark_arSad.above"/>
    <component base="ar3IDot.below" xOffset="169.0" yOffset="-309.0" identifier="mark_ar3IDot.below"/>
    <component base="ar2Dot.below" xOffset="169.0" yOffset="-309.0" identifier="mark_ar2Dot.below"/>
    <component base="uni0650" xOffset="169.0" yOffset="-329.0" identifier="mark_uni0650"/>
    <component base="uni0656" xOffset="169.0" yOffset="-309.0" identifier="mark_uni0656"/>
    <component base="uni064D" xOffset="169.0" yOffset="-338.0" identifier="mark_uni064D"/>
    <component base="ar1Dot.below" xOffset="169.0" yOffset="-309.0" identifier="mark_ar1Dot.below"/>
    <component base="ar3Dot.below" xOffset="169.0" yOffset="-309.0" identifier="mark_ar3Dot.below"/>
    <component base="arKaf.above" xOffset="233.0" yOffset="434.0" identifier="mark_arKaf.above"/>
    <component base="uni0653" xOffset="233.0" yOffset="434.0" identifier="mark_uni0653"/>
    <component base="uni0670" xOffset="233.0" yOffset="434.0" identifier="mark_uni0670"/>
    <component base="uni064C" xOffset="232.0" yOffset="466.0" identifier="mark_uni064C"/>
    <component base="uni064F" xOffset="227.0" yOffset="466.0" identifier="mark_uni064F"/>
    <component base="uni0652" xOffset="233.0" yOffset="471.0" identifier="mark_uni0652"/>
    <component base="ar2Dot.above" xOffset="233.0" yOffset="434.0" identifier="mark_ar2Dot.above"/>
    <component base="ar3IDot.above" xOffset="233.0" yOffset="434.0" identifier="mark_ar3IDot.above"/>
  </outline>
</glyph>
<glyph name="arYeh.fina.alt1" format="2">
  <advance width="574"/>
  <outline>
    <contour>
      <point x="402.0" y="21.0" type="line"/>
      <point x="434.0" y="21.0" type="line"/>
      <point x="434.0" y="-122.0" type="line" smooth="yes"/>
      <point x="434.0" y="-149.0"/>
      <point x="414.0" y="-188.0"/>
      <point x="371.0" y="-188.0" type="curve" smooth="yes"/>
      <point x="234.0" y="-188.0" type="line" smooth="yes"/>
      <point x="148.0" y="-188.0"/>
      <point x="40.0" y="-130.0"/>
      <point x="40.0" y="-33.0" type="curve" smooth="yes"/>
      <point x="40.0" y="149.0" type="line"/>
      <point x="72.0" y="149.0" type="line"/>
      <point x="72.0" y="-33.0" type="line" smooth="yes"/>
      <point x="72.0" y="-102.0"/>
      <point x="156.0" y="-156.0"/>
      <point x="234.0" y="-156.0" type="curve" smooth="yes"/>
      <point x="371.0" y="-156.0" type="line" smooth="yes"/>
      <point x="390.0" y="-156.0"/>
      <point x="402.0" y="-137.0"/>
      <point x="402.0" y="-122.0" type="curve" smooth="yes"/>
    </contour>
    <contour>
      <point x="574.0" y="32.0" type="line"/>
      <point x="574.0" y="0.0" type="line"/>
      <point x="321.0" y="0.0" type="line"/>
      <point x="321.0" y="32.0" type="line"/>
    </contour>
    <component base="ar3IDot.below" xOffset="287.0" yOffset="-288.0" identifier="mark_ar3IDot.below"/>
    <component base="ar2Dot.below" xOffset="287.0" yOffset="-288.0" identifier="mark_ar2Dot.below"/>
    <component base="uni0650" xOffset="287.0" yOffset="-308.0" identifier="mark_uni0650"/>
    <component base="uni0656" xOffset="287.0" yOffset="-288.0" identifier="mark_uni0656"/>
    <component base="ar3IDot.above" xOffset="247.0" yOffset="199.0" identifier="mark_ar3IDot.above"/>
    <component base="ar2Dot.above" xOffset="247.0" yOffset="199.0" identifier="mark_ar2Dot.above"/>
    <component base="uni0654" xOffset="247.0" yOffset="199.0" identifier="mark_uni0654"/>
    <component base="arSad.above" xOffset="247.0" yOffset="199.0" identifier="mark_arSad.above"/>
    <component base="uni0652" xOffset="247.0" yOffset="236.0" identifier="mark_uni0652"/>
    <component base="uni064F" xOffset="241.0" yOffset="231.0" identifier="mark_uni064F"/>
    <component base="uni064C" xOffset="246.0" yOffset="231.0" identifier="mark_uni064C"/>
    <component base="uni0670" xOffset="247.0" yOffset="199.0" identifier="mark_uni0670"/>
    <component base="uni064B" xOffset="247.0" yOffset="237.0" identifier="mark_uni064B"/>
    <component base="uni064E" xOffset="247.0" yOffset="219.0" identifier="mark_uni064E"/>
    <component base="uni0651" xOffset="247.0" yOffset="237.0" identifier="mark_uni0651"/>
    <component base="arKaf.above" xOffset="247.0" yOffset="199.0" identifier="mark_arKaf.above"/>
    <component base="uni0653" xOffset="247.0" yOffset="199.0" identifier="mark_uni0653"/>
    <component base="ar1Dot.above" xOffset="247.0" yOffset="199.0" identifier="mark_ar1Dot.above"/>
    <component base="ar3Dot.above" xOffset="247.0" yOffset="199.0" identifier="mark_ar3Dot.above"/>
    <component base="arTah.above" xOffset="247.0" yOffset="199.0" identifier="mark_arTah.above"/>
    <component base="uni064D" xOffset="287.0" yOffset="-317.0" identifier="mark_uni064D"/>
    <component base="ar1Dot.below" xOffset="287.0" yOffset="-288.0" identifier="mark_ar1Dot.below"/>
    <component base="ar3Dot.below" xOffset="287.0" yOffset="-288.0" identifier="mark_ar3Dot.below"/>
  </outline>
</glyph>
<glyph name="arYeh.fina.alt2" format="2">
  <advance width="768"/>
  <anchor x="304.0" y="-273.0" name="dotBelow"/>
  <anchor x="304.0" y="-293.0" name="markBelow"/>
  <anchor x="214.0" y="293.0" name="dotAbove"/>
  <anchor x="214.0" y="293.0" name="uni0654"/>
  <anchor x="214.0" y="293.0" name="arSad.above"/>
  <anchor x="214.0" y="330.0" name="markAbove"/>
  <anchor x="214.0" y="293.0" name="arKaf.above"/>
  <anchor x="214.0" y="293.0" name="uni0653"/>
  <outline>
    <contour>
      <point x="768.0" y="32.0" type="line"/>
      <point x="768.0" y="0.0" type="line"/>
      <point x="657.0" y="0.0" type="line" smooth="yes"/>
      <point x="623.0" y="0.0"/>
      <point x="595.0" y="26.0"/>
      <point x="594.0" y="61.0" type="curve" smooth="yes"/>
      <point x="590.0" y="143.0" type="line" smooth="yes"/>
      <point x="588.0" y="195.0"/>
      <point x="542.0" y="221.0"/>
      <point x="483.0" y="188.0" type="curve" smooth="yes"/>
      <point x="442.0" y="166.0"/>
      <point x="398.0" y="135.0"/>
      <point x="371.0" y="108.0" type="curve" smooth="yes"/>
      <point x="361.0" y="98.0"/>
      <point x="361.0" y="75.0"/>
      <point x="373.0" y="61.0" type="curve" smooth="yes"/>
      <point x="488.0" y="-70.0" type="line" smooth="yes"/>
      <point x="524.0" y="-111.0"/>
      <point x="485.0" y="-163.0"/>
      <point x="437.0" y="-163.0" type="curve" smooth="yes"/>
      <point x="171.0" y="-163.0" type="line" smooth="yes"/>
      <point x="92.0" y="-164.0"/>
      <point x="40.0" y="-98.0"/>
      <point x="40.0" y="-23.0" type="curve" smooth="yes"/>
      <point x="40.0" y="180.0" type="line"/>
      <point x="72.0" y="180.0" type="line"/>
      <point x="72.0" y="-23.0" type="line" smooth="yes"/>
      <point x="72.0" y="-84.0"/>
      <point x="112.0" y="-132.0"/>
      <point x="171.0" y="-131.0" type="curve" smooth="yes"/>
      <point x="437.0" y="-131.0" type="line" smooth="yes"/>
      <point x="464.0" y="-131.0"/>
      <point x="478.0" y="-108.0"/>
      <point x="464.0" y="-92.0" type="curve" smooth="yes"/>
      <point x="351.0" y="38.0" type="line" smooth="yes"/>
      <point x="328.0" y="65.0"/>
      <point x="322.0" y="108.0"/>
      <point x="350.0" y="132.0" type="curve" smooth="yes"/>
      <point x="385.0" y="166.0"/>
      <point x="427.0" y="194.0"/>
      <point x="467.0" y="216.0" type="curve" smooth="yes"/>
      <point x="541.0" y="258.0"/>
      <point x="618.0" y="223.0"/>
      <point x="622.0" y="145.0" type="curve" smooth="yes"/>
      <point x="623.4" y="115.95"/>
      <point x="624.6" y="91.05"/>
      <point x="626.0" y="62.0" type="curve" smooth="yes"/>
      <point x="627.0" y="45.0"/>
      <point x="638.0" y="32.0"/>
      <point x="657.0" y="32.0" type="curve" smooth="yes"/>
    </contour>
  </outline>
</glyph>
<glyph name="arYeh.fina2" format="2">
  <advance width="661"/>
  <outline>
    <contour>
      <point x="662.0" y="-244.0" type="line"/>
      <point x="662.0" y="-276.0" type="line"/>
      <point x="224.0" y="-276.0" type="line" smooth="yes"/>
      <point x="119.0" y="-276.0"/>
      <point x="59.0" y="-231.0"/>
      <point x="44.0" y="-173.0" type="curve" smooth="yes"/>
      <point x="27.0" y="-108.0"/>
      <point x="68.0" y="-36.0"/>
      <point x="143.0" y="-16.0" type="curve" smooth="yes"/>
      <point x="248.0" y="12.0"/>
      <point x="230.0" y="44.0"/>
      <point x="255.0" y="86.0" type="curve" smooth="yes"/>
      <point x="279.0" y="127.0"/>
      <point x="320.0" y="162.0"/>
      <point x="379.0" y="160.0" type="curve" smooth="yes"/>
      <point x="422.0" y="159.0"/>
      <point x="463.0" y="134.0"/>
      <point x="486.0" y="91.0" type="curve" smooth="yes"/>
      <point x="509.0" y="46.0"/>
      <point x="538.0" y="32.0"/>
      <point x="588.0" y="32.0" type="curve" smooth="yes"/>
      <point x="661.0" y="32.0" type="line"/>
      <point x="661.0" y="0.0" type="line"/>
      <point x="588.0" y="0.0" type="line" smooth="yes"/>
      <point x="530.0" y="0.0"/>
      <point x="487.0" y="22.0"/>
      <point x="458.0" y="77.0" type="curve" smooth="yes"/>
      <point x="441.0" y="109.0"/>
      <point x="411.0" y="127.0"/>
      <point x="379.0" y="128.0" type="curve" smooth="yes"/>
      <point x="333.0" y="130.0"/>
      <point x="303.0" y="103.0"/>
      <point x="283.0" y="70.0" type="curve" smooth="yes"/>
      <point x="266.0" y="40.0"/>
      <point x="266.0" y="-16.0"/>
      <point x="151.0" y="-46.0" type="curve" smooth="yes"/>
      <point x="92.0" y="-62.0"/>
      <point x="63.0" y="-118.0"/>
      <point x="75.0" y="-165.0" type="curve" smooth="yes"/>
      <point x="86.0" y="-205.0"/>
      <point x="128.0" y="-244.0"/>
      <point x="224.0" y="-244.0" type="curve" smooth="yes"/>
    </contour>
    <component base="arTah.above" xOffset="380.0" yOffset="319.0" identifier="mark_arTah.above"/>
    <component base="ar3Dot.above" xOffset="380.0" yOffset="319.0" identifier="mark_ar3Dot.above"/>
    <component base="ar1Dot.above" xOffset="380.0" yOffset="319.0" identifier="mark_ar1Dot.above"/>
    <component base="uni0653" xOffset="380.0" yOffset="319.0" identifier="mark_uni0653"/>
    <component base="arKaf.above" xOffset="380.0" yOffset="319.0" identifier="mark_arKaf.above"/>
    <component base="uni0651" xOffset="380.0" yOffset="357.0" identifier="mark_uni0651"/>
    <component base="uni064E" xOffset="380.0" yOffset="339.0" identifier="mark_uni064E"/>
    <component base="uni064B" xOffset="380.0" yOffset="357.0" identifier="mark_uni064B"/>
    <component base="ar3IDot.below" xOffset="330.0" yOffset="-376.0" identifier="mark_ar3IDot.below"/>
    <component base="ar2Dot.below" xOffset="330.0" yOffset="-376.0" identifier="mark_ar2Dot.below"/>
    <component base="uni0650" xOffset="330.0" yOffset="-396.0" identifier="mark_uni0650"/>
    <component base="uni0656" xOffset="330.0" yOffset="-376.0" identifier="mark_uni0656"/>
    <component base="uni064D" xOffset="330.0" yOffset="-405.0" identifier="mark_uni064D"/>
    <component base="ar1Dot.below" xOffset="330.0" yOffset="-376.0" identifier="mark_ar1Dot.below"/>
    <component base="ar3Dot.below" xOffset="330.0" yOffset="-376.0" identifier="mark_ar3Dot.below"/>
    <component base="uni0670" xOffset="380.0" yOffset="319.0" identifier="mark_uni0670"/>
    <component base="uni064C" xOffset="379.0" yOffset="351.0" identifier="mark_uni064C"/>
    <component base="uni064F" xOffset="374.0" yOffset="351.0" identifier="mark_uni064F"/>
    <component base="uni0652" xOffset="380.0" yOffset="356.0" identifier="mark_uni0652"/>
    <component base="arSad.above" xOffset="380.0" yOffset="319.0" identifier="mark_arSad.above"/>
    <component base="uni0654" xOffset="380.0" yOffset="319.0" identifier="mark_uni0654"/>
    <component base="ar2Dot.above" xOffset="380.0" yOffset="319.0" identifier="mark_ar2Dot.above"/>
    <component base="ar3IDot.above" xOffset="380.0" yOffset="319.0" identifier="mark_ar3IDot.above"/>
  </outline>
</glyph>
<glyph name="arYeh.isol" format="2">
  <advance width="544"/>
  <outline>
    <contour>
      <point x="504.0" y="62.0" type="line"/>
      <point x="504.0" y="30.0" type="line"/>
      <point x="396.0" y="30.0" type="line" smooth="yes"/>
      <point x="366.0" y="30.0"/>
      <point x="345.0" y="10.0"/>
      <point x="371.0" y="-22.0" type="curve" smooth="yes"/>
      <point x="482.0" y="-156.0" type="line" smooth="yes"/>
      <point x="513.0" y="-194.0"/>
      <point x="481.0" y="-244.0"/>
      <point x="427.0" y="-244.0" type="curve" smooth="yes"/>
      <point x="197.0" y="-244.0" type="line" smooth="yes"/>
      <point x="129.0" y="-244.0"/>
      <point x="40.0" y="-206.0"/>
      <point x="40.0" y="-103.0" type="curve" smooth="yes"/>
      <point x="40.0" y="59.0" type="line"/>
      <point x="72.0" y="59.0" type="line"/>
      <point x="72.0" y="-103.0" type="line" smooth="yes"/>
      <point x="72.0" y="-182.0"/>
      <point x="137.0" y="-212.0"/>
      <point x="197.0" y="-212.0" type="curve" smooth="yes"/>
      <point x="427.0" y="-212.0" type="line" smooth="yes"/>
      <point x="459.0" y="-212.0"/>
      <point x="470.0" y="-191.0"/>
      <point x="458.0" y="-176.0" type="curve" smooth="yes"/>
      <point x="347.0" y="-42.0" type="line" smooth="yes"/>
      <point x="304.0" y="10.0"/>
      <point x="341.0" y="62.0"/>
      <point x="396.0" y="62.0" type="curve" smooth="yes"/>
    </contour>
    <component base="ar3IDot.below" xOffset="279.0" yOffset="-334.0" identifier="mark_ar3IDot.below"/>
    <component base="ar2Dot.below" xOffset="279.0" yOffset="-334.0" identifier="mark_ar2Dot.below"/>
    <component base="uni0650" xOffset="279.0" yOffset="-354.0" identifier="mark_uni0650"/>
    <component base="uni0656" xOffset="279.0" yOffset="-334.0" identifier="mark_uni0656"/>
    <component base="ar3IDot.above" xOffset="207.0" yOffset="192.0" identifier="mark_ar3IDot.above"/>
    <component base="ar2Dot.above" xOffset="207.0" yOffset="192.0" identifier="mark_ar2Dot.above"/>
    <component base="uni0654" xOffset="207.0" yOffset="192.0" identifier="mark_uni0654"/>
    <component base="arSad.above" xOffset="207.0" yOffset="192.0" identifier="mark_arSad.above"/>
    <component base="uni0652" xOffset="207.0" yOffset="229.0" identifier="mark_uni0652"/>
    <component base="uni064F" xOffset="201.0" yOffset="224.0" identifier="mark_uni064F"/>
    <component base="uni064C" xOffset="206.0" yOffset="224.0" identifier="mark_uni064C"/>
    <component base="uni0670" xOffset="207.0" yOffset="192.0" identifier="mark_uni0670"/>
    <component base="uni064B" xOffset="207.0" yOffset="230.0" identifier="mark_uni064B"/>
    <component base="uni064E" xOffset="207.0" yOffset="212.0" identifier="mark_uni064E"/>
    <component base="uni0651" xOffset="207.0" yOffset="230.0" identifier="mark_uni0651"/>
    <component base="arKaf.above" xOffset="207.0" yOffset="192.0" identifier="mark_arKaf.above"/>
    <component base="uni0653" xOffset="207.0" yOffset="192.0" identifier="mark_uni0653"/>
    <component base="ar1Dot.above" xOffset="207.0" yOffset="192.0" identifier="mark_ar1Dot.above"/>
    <component base="ar3Dot.above" xOffset="207.0" yOffset="192.0" identifier="mark_ar3Dot.above"/>
    <component base="arTah.above" xOffset="207.0" yOffset="192.0" identifier="mark_arTah.above"/>
    <component base="uni064D" xOffset="279.0" yOffset="-363.0" identifier="mark_uni064D"/>
    <component base="ar1Dot.below" xOffset="279.0" yOffset="-334.0" identifier="mark_ar1Dot.below"/>
    <component base="ar3Dot.below" xOffset="279.0" yOffset="-334.0" identifier="mark_ar3Dot.below"/>
  </outline>
</glyph>
<glyph name="arYeh.isol2" format="2">
  <advance width="889"/>
  <outline>
    <contour>
      <point x="515.0" y="198.0" type="curve"/>
      <point x="498.0" y="170.0" type="line"/>
      <point x="445.0" y="203.0"/>
      <point x="347.0" y="241.0"/>
      <point x="282.0" y="148.0" type="curve" smooth="yes"/>
      <point x="264.0" y="122.0"/>
      <point x="266.0" y="62.0"/>
      <point x="151.0" y="32.0" type="curve" smooth="yes"/>
      <point x="92.0" y="16.0"/>
      <point x="63.0" y="-40.0"/>
      <point x="75.0" y="-86.0" type="curve" smooth="yes"/>
      <point x="85.0" y="-126.0"/>
      <point x="128.0" y="-165.0"/>
      <point x="224.0" y="-165.0" type="curve" smooth="yes"/>
      <point x="850.0" y="-165.0" type="line"/>
      <point x="850.0" y="-197.0" type="line"/>
      <point x="224.0" y="-197.0" type="line" smooth="yes"/>
      <point x="119.0" y="-197.0"/>
      <point x="59.0" y="-152.0"/>
      <point x="44.0" y="-94.0" type="curve" smooth="yes"/>
      <point x="27.0" y="-29.0"/>
      <point x="68.0" y="42.0"/>
      <point x="143.0" y="62.0" type="curve" smooth="yes"/>
      <point x="248.0" y="90.0"/>
      <point x="226.0" y="124.0"/>
      <point x="256.0" y="166.0" type="curve" smooth="yes"/>
      <point x="337.0" y="281.0"/>
      <point x="460.0" y="233.0"/>
    </contour>
    <component base="ar3IDot.below" xOffset="444.0" yOffset="-297.0" identifier="mark_ar3IDot.below"/>
    <component base="ar2Dot.below" xOffset="444.0" yOffset="-297.0" identifier="mark_ar2Dot.below"/>
    <component base="uni0650" xOffset="444.0" yOffset="-317.0" identifier="mark_uni0650"/>
    <component base="uni0656" xOffset="444.0" yOffset="-297.0" identifier="mark_uni0656"/>
    <component base="ar3IDot.above" xOffset="384.0" yOffset="338.0" identifier="mark_ar3IDot.above"/>
    <component base="ar2Dot.above" xOffset="384.0" yOffset="338.0" identifier="mark_ar2Dot.above"/>
    <component base="uni0654" xOffset="384.0" yOffset="338.0" identifier="mark_uni0654"/>
    <component base="arSad.above" xOffset="384.0" yOffset="338.0" identifier="mark_arSad.above"/>
    <component base="uni0652" xOffset="384.0" yOffset="375.0" identifier="mark_uni0652"/>
    <component base="uni064F" xOffset="378.0" yOffset="370.0" identifier="mark_uni064F"/>
    <component base="uni064C" xOffset="383.0" yOffset="370.0" identifier="mark_uni064C"/>
    <component base="uni0670" xOffset="384.0" yOffset="338.0" identifier="mark_uni0670"/>
    <component base="uni064B" xOffset="384.0" yOffset="376.0" identifier="mark_uni064B"/>
    <component base="uni064E" xOffset="384.0" yOffset="358.0" identifier="mark_uni064E"/>
    <component base="uni0651" xOffset="384.0" yOffset="376.0" identifier="mark_uni0651"/>
    <component base="arKaf.above" xOffset="384.0" yOffset="338.0" identifier="mark_arKaf.above"/>
    <component base="uni0653" xOffset="384.0" yOffset="338.0" identifier="mark_uni0653"/>
    <component base="ar1Dot.above" xOffset="384.0" yOffset="338.0" identifier="mark_ar1Dot.above"/>
    <component base="ar3Dot.above" xOffset="384.0" yOffset="338.0" identifier="mark_ar3Dot.above"/>
    <component base="arTah.above" xOffset="384.0" yOffset="338.0" identifier="mark_arTah.above"/>
    <component base="uni064D" xOffset="444.0" yOffset="-326.0" identifier="mark_uni064D"/>
    <component base="ar1Dot.below" xOffset="444.0" yOffset="-297.0" identifier="mark_ar1Dot.below"/>
    <component base="ar3Dot.below" xOffset="444.0" yOffset="-297.0" identifier="mark_ar3Dot.below"/>
  </outline>
</glyph>
<glyph name="braceleft.ar" format="2">
  <advance width="362"/>
  <outline>
    <contour>
      <point x="143.3056640625" y="204.4912109375" type="curve"/>
      <point x="190.9990234375" y="183.2509765625"/>
      <point x="217.0" y="142.53125"/>
      <point x="217.0" y="87.0" type="curve" smooth="yes"/>
      <point x="217.0" y="-151.0" type="line" smooth="yes"/>
      <point x="217.0" y="-227.7705078125"/>
      <point x="270.5732421875" y="-258.0"/>
      <point x="342.0" y="-258.0" type="curve"/>
      <point x="342.0" y="-290.0" type="line"/>
      <point x="261.4267578125" y="-290.0"/>
      <point x="185.0" y="-250.2294921875"/>
      <point x="185.0" y="-151.0" type="curve" smooth="yes"/>
      <point x="185.0" y="87.0" type="line" smooth="yes"/>
      <point x="185.0" y="142.0693359375"/>
      <point x="155.072265625" y="174.2314453125"/>
      <point x="98.962890625" y="184.6552734375" type="curve" smooth="yes"/>
      <point x="87.138671875" y="186.8525390625"/>
      <point x="74.111328125" y="188.0"/>
      <point x="60.0" y="188.0" type="curve"/>
      <point x="60.0" y="220.0" type="line"/>
      <point x="74.2470703125" y="220.0"/>
      <point x="87.34765625" y="221.2890625"/>
      <point x="99.2158203125" y="223.69921875" type="curve" smooth="yes"/>
      <point x="155.3486328125" y="235.09765625"/>
      <point x="185.0" y="270.1845703125"/>
      <point x="185.0" y="322.0" type="curve" smooth="yes"/>
      <point x="185.0" y="574.0" type="line" smooth="yes"/>
      <point x="185.0" y="657.66796875"/>
      <point x="262.1630859375" y="699.1064453125"/>
      <point x="342.4208984375" y="696.994140625" type="curve"/>
      <point x="341.5791015625" y="665.005859375" type="line"/>
      <point x="269.8369140625" y="666.8935546875"/>
      <point x="217.0" y="632.33203125"/>
      <point x="217.0" y="574.0" type="curve" smooth="yes"/>
      <point x="217.0" y="322.0" type="line" smooth="yes"/>
      <point x="217.0" y="268.9482421875"/>
      <point x="189.7880859375" y="226.3037109375"/>
    </contour>
  </outline>
</glyph>
<glyph name="extender" format="2">
  <outline>
    <contour>
      <point x="10.0" y="32.0" type="line"/>
      <point x="10.0" y="0.0" type="line"/>
      <point x="-10.0" y="0.0" type="line"/>
      <point x="-10.0" y="32.0" type="line"/>
    </contour>
  </outline>
</glyph>
<glyph name="uni0664.alt" format="2">
  <advance width="460"/>
  <outline>
    <contour>
      <point x="272.0" y="591.0" type="curve"/>
      <point x="291.0" y="565.0" type="line"/>
      <point x="116.0" y="437.0" type="line" smooth="yes"/>
      <point x="94.0" y="421.0"/>
      <point x="87.0" y="409.0"/>
      <point x="120.0" y="379.0" type="curve" smooth="yes"/>
      <point x="252.0" y="259.0" type="line" smooth="yes"/>
      <point x="259.0" y="253.0"/>
      <point x="259.0" y="242.0"/>
      <point x="254.0" y="236.0" type="curve" smooth="yes"/>
      <point x="109.0" y="76.0" type="line" smooth="yes"/>
      <point x="85.0" y="51.0"/>
      <point x="82.0" y="32.0"/>
      <point x="103.0" y="32.0" type="curve" smooth="yes"/>
      <point x="403.0" y="32.0" type="line"/>
      <point x="403.0" y="0.0" type="line"/>
      <point x="95.0" y="0.0" type="line" smooth="yes"/>
      <point x="72.0" y="0.0"/>
      <point x="62.0" y="20.0"/>
      <point x="59.0" y="29.0" type="curve" smooth="yes"/>
      <point x="51.0" y="56.0"/>
      <point x="71.0" y="82.0"/>
      <point x="86.0" y="98.0" type="curve" smooth="yes"/>
      <point x="219.0" y="246.0" type="line"/>
      <point x="98.0" y="356.0" type="line" smooth="yes"/>
      <point x="82.0" y="371.0"/>
      <point x="67.0" y="391.0"/>
      <point x="66.0" y="412.0" type="curve" smooth="yes"/>
      <point x="65.0" y="428.0"/>
      <point x="72.0" y="445.0"/>
      <point x="93.0" y="460.0" type="curve"/>
      <point x="93.0" y="460.0"/>
      <point x="210.0" y="545.0"/>
    </contour>
  </outline>
</glyph>
